  0
SECTION
  2
HEADER
  9
$ACADVER
  1
AC1015
  9
$ACADMAINTVER
 70
     6
  9
$DWGCODEPAGE
  3
ANSI_1251
  9
$INSBASE
 10
0.0
 20
0.0
 30
0.0
  9
$EXTMIN
 10
-324.5798957497
 20
-834.6400405304
 30
0.0
  9
$EXTMAX
 10
324.5798957497
 20
834.6400405304
 30
0.0
  9
$LIMMIN
 10
0.0
 20
0.0
  9
$LIMMAX
 10
420.0
 20
297.0
  9
$ORTHOMODE
 70
     0
  9
$REGENMODE
 70
     1
  9
$FILLMODE
 70
     1
  9
$QTEXTMODE
 70
     0
  9
$MIRRTEXT
 70
     1
  9
$LTSCALE
 40
1.0
  9
$ATTMODE
 70
     1
  9
$TEXTSIZE
 40
4.0
  9
$TRACEWID
 40
1.0
  9
$TEXTSTYLE
  7
Standard
  9
$CLAYER
  8
0
  9
$CELTYPE
  6
ByLayer
  9
$CECOLOR
 62
   256
  9
$CELTSCALE
 40
1.0
  9
$DISPSILH
 70
     0
  9
$DIMSCALE
 40
1.0
  9
$DIMASZ
 40
6.0
  9
$DIMEXO
 40
0.0
  9
$DIMDLI
 40
3.75
  9
$DIMRND
 40
0.0
  9
$DIMDLE
 40
0.0
  9
$DIMEXE
 40
1.0
  9
$DIMTP
 40
0.0
  9
$DIMTM
 40
0.0
  9
$DIMTXT
 40
4.0
  9
$DIMCEN
 40
2.5
  9
$DIMTSZ
 40
0.0
  9
$DIMTOL
 70
     0
  9
$DIMLIM
 70
     0
  9
$DIMTIH
 70
     1
  9
$DIMTOH
 70
     1
  9
$DIMSE1
 70
     0
  9
$DIMSE2
 70
     0
  9
$DIMTAD
 70
     1
  9
$DIMZIN
 70
     0
  9
$DIMBLK
  1

  9
$DIMASO
 70
     1
  9
$DIMSHO
 70
     1
  9
$DIMPOST
  1

  9
$DIMAPOST
  1

  9
$DIMALT
 70
     0
  9
$DIMALTD
 70
     3
  9
$DIMALTF
 40
0.0393700787
  9
$DIMLFAC
 40
1.0
  9
$DIMTOFL
 70
     1
  9
$DIMTVP
 40
0.0
  9
$DIMTIX
 70
     0
  9
$DIMSOXD
 70
     0
  9
$DIMSAH
 70
     0
  9
$DIMBLK1
  1

  9
$DIMBLK2
  1

  9
$DIMSTYLE
  2
ISO-25
  9
$DIMCLRD
 70
     0
  9
$DIMCLRE
 70
     0
  9
$DIMCLRT
 70
     0
  9
$DIMTFAC
 40
1.0
  9
$DIMGAP
 40
3.0
  9
$DIMJUST
 70
     0
  9
$DIMSD1
 70
     0
  9
$DIMSD2
 70
     0
  9
$DIMTOLJ
 70
     0
  9
$DIMTZIN
 70
     0
  9
$DIMALTZ
 70
     0
  9
$DIMALTTZ
 70
     0
  9
$DIMUPT
 70
     0
  9
$DIMDEC
 70
     2
  9
$DIMTDEC
 70
     4
  9
$DIMALTU
 70
     2
  9
$DIMALTTD
 70
     3
  9
$DIMTXSTY
  7
Standard
  9
$DIMAUNIT
 70
     0
  9
$DIMADEC
 70
     2
  9
$DIMALTRND
 40
0.0
  9
$DIMAZIN
 70
     0
  9
$DIMDSEP
 70
    44
  9
$DIMATFIT
 70
     3
  9
$DIMFRAC
 70
     0
  9
$DIMLDRBLK
  1

  9
$DIMLUNIT
 70
     2
  9
$DIMLWD
 70
    -2
  9
$DIMLWE
 70
    -2
  9
$DIMTMOVE
 70
     0
  9
$LUNITS
 70
     2
  9
$LUPREC
 70
     2
  9
$SKETCHINC
 40
1.0
  9
$FILLETRAD
 40
0.0
  9
$AUNITS
 70
     0
  9
$AUPREC
 70
     2
  9
$MENU
  1
.
  9
$ELEVATION
 40
0.0
  9
$PELEVATION
 40
0.0
  9
$THICKNESS
 40
0.0
  9
$LIMCHECK
 70
     0
  9
$CHAMFERA
 40
0.0
  9
$CHAMFERB
 40
0.0
  9
$CHAMFERC
 40
0.0
  9
$CHAMFERD
 40
0.0
  9
$SKPOLY
 70
     0
  9
$TDCREATE
 40
2461004.60478316
  9
$TDUCREATE
 40
2461004.47978316
  9
$TDUPDATE
 40
2461004.604796366
  9
$TDUUPDATE
 40
2461004.479796366
  9
$TDINDWG
 40
0.0000000116
  9
$TDUSRTIMER
 40
0.0000000116
  9
$USRTIMER
 70
     1
  9
$ANGBASE
 50
0.0
  9
$ANGDIR
 70
     0
  9
$PDMODE
 70
     0
  9
$PDSIZE
 40
-1.0
  9
$PLINEWID
 40
0.0
  9
$SPLFRAME
 70
     0
  9
$SPLINETYPE
 70
     6
  9
$SPLINESEGS
 70
     8
  9
$HANDSEED
  5
11F
  9
$SURFTAB1
 70
     6
  9
$SURFTAB2
 70
     6
  9
$SURFTYPE
 70
     6
  9
$SURFU
 70
     6
  9
$SURFV
 70
     6
  9
$UCSBASE
  2

  9
$UCSNAME
  2

  9
$UCSORG
 10
0.0
 20
0.0
 30
0.0
  9
$UCSXDIR
 10
1.0
 20
0.0
 30
0.0
  9
$UCSYDIR
 10
0.0
 20
1.0
 30
0.0
  9
$UCSORTHOREF
  2

  9
$UCSORTHOVIEW
 70
     0
  9
$UCSORGTOP
 10
0.0
 20
0.0
 30
0.0
  9
$UCSORGBOTTOM
 10
0.0
 20
0.0
 30
0.0
  9
$UCSORGLEFT
 10
0.0
 20
0.0
 30
0.0
  9
$UCSORGRIGHT
 10
0.0
 20
0.0
 30
0.0
  9
$UCSORGFRONT
 10
0.0
 20
0.0
 30
0.0
  9
$UCSORGBACK
 10
0.0
 20
0.0
 30
0.0
  9
$PUCSBASE
  2

  9
$PUCSNAME
  2

  9
$PUCSORG
 10
0.0
 20
0.0
 30
0.0
  9
$PUCSXDIR
 10
1.0
 20
0.0
 30
0.0
  9
$PUCSYDIR
 10
0.0
 20
1.0
 30
0.0
  9
$PUCSORTHOREF
  2

  9
$PUCSORTHOVIEW
 70
     0
  9
$PUCSORGTOP
 10
0.0
 20
0.0
 30
0.0
  9
$PUCSORGBOTTOM
 10
0.0
 20
0.0
 30
0.0
  9
$PUCSORGLEFT
 10
0.0
 20
0.0
 30
0.0
  9
$PUCSORGRIGHT
 10
0.0
 20
0.0
 30
0.0
  9
$PUCSORGFRONT
 10
0.0
 20
0.0
 30
0.0
  9
$PUCSORGBACK
 10
0.0
 20
0.0
 30
0.0
  9
$USERI1
 70
     0
  9
$USERI2
 70
     0
  9
$USERI3
 70
     0
  9
$USERI4
 70
     0
  9
$USERI5
 70
     0
  9
$USERR1
 40
0.0
  9
$USERR2
 40
0.0
  9
$USERR3
 40
0.0
  9
$USERR4
 40
0.0
  9
$USERR5
 40
0.0
  9
$WORLDVIEW
 70
     1
  9
$SHADEDGE
 70
     3
  9
$SHADEDIF
 70
    70
  9
$TILEMODE
 70
     1
  9
$MAXACTVP
 70
    64
  9
$PINSBASE
 10
0.0
 20
0.0
 30
0.0
  9
$PLIMCHECK
 70
     0
  9
$PEXTMIN
 10
1.0000000000E+20
 20
1.0000000000E+20
 30
1.0000000000E+20
  9
$PEXTMAX
 10
-1.0000000000E+20
 20
-1.0000000000E+20
 30
-1.0000000000E+20
  9
$PLIMMIN
 10
0.0
 20
0.0
  9
$PLIMMAX
 10
420.0
 20
297.0
  9
$UNITMODE
 70
     0
  9
$VISRETAIN
 70
     1
  9
$PLINEGEN
 70
     0
  9
$PSLTSCALE
 70
     1
  9
$TREEDEPTH
 70
  3020
  9
$CMLSTYLE
  2
Standard
  9
$CMLJUST
 70
     0
  9
$CMLSCALE
 40
20.0
  9
$PROXYGRAPHICS
 70
     1
  9
$MEASUREMENT
 70
     1
  9
$CELWEIGHT
370
    -1
  9
$ENDCAPS
280
     0
  9
$JOINSTYLE
280
     0
  9
$LWDISPLAY
290
     1
  9
$INSUNITS
 70
     4
  9
$HYPERLINKBASE
  1

  9
$STYLESHEET
  1

  9
$XEDIT
290
     1
  9
$CEPSNTYPE
380
     0
  9
$PSTYLEMODE
290
     1
  9
$FINGERPRINTGUID
  2
{607e90d3-ec24-4456-9aa4-16c11a4d6069}
  9
$VERSIONGUID
  2
{FAEB1C32-E019-11D5-929B-00C0DF256EC4}
  9
$EXTNAMES
290
     1
  9
$PSVPSCALE
 40
0.0
  9
$OLESTARTUP
290
     0
  0
ENDSEC
  0
SECTION
  2
CLASSES
  0
CLASS
  1
ACDBDICTIONARYWDFLT
  2
AcDbDictionaryWithDefault
  3
ObjectDBX Classes
 90
        0
280
     0
281
     0
  0
CLASS
  1
VISUALSTYLE
  2
AcDbVisualStyle
  3
ObjectDBX Classes
 90
     4095
280
     0
281
     0
  0
CLASS
  1
MATERIAL
  2
AcDbMaterial
  3
ObjectDBX Classes
 90
     1153
280
     0
281
     0
  0
CLASS
  1
SCALE
  2
AcDbScale
  3
ObjectDBX Classes
 90
     1153
280
     0
281
     0
  0
CLASS
  1
TABLESTYLE
  2
AcDbTableStyle
  3
ObjectDBX Classes
 90
     4095
280
     0
281
     0
  0
CLASS
  1
MLEADERSTYLE
  2
AcDbMLeaderStyle
  3
ACDB_MLEADERSTYLE_CLASS
 90
     4095
280
     0
281
     0
  0
CLASS
  1
SUN
  2
AcDbSun
  3
SCENEOE
 90
     1153
280
     0
281
     0
  0
CLASS
  1
ACDBPLACEHOLDER
  2
AcDbPlaceHolder
  3
ObjectDBX Classes
 90
        0
280
     0
281
     0
  0
CLASS
  1
LAYOUT
  2
AcDbLayout
  3
ObjectDBX Classes
 90
        0
280
     0
281
     0
  0
ENDSEC
  0
SECTION
  2
TABLES
  0
TABLE
  2
VPORT
  5
8
330
0
100
AcDbSymbolTable
 70
     1
  0
VPORT
  5
29
330
8
100
AcDbSymbolTableRecord
100
AcDbViewportTableRecord
  2
*Active
 70
     0
 10
0.0
 20
0.0
 11
1.0
 21
1.0
 12
0.0
 22
0.0
 13
0.0
 23
0.0
 14
10.0
 24
10.0
 15
10.0
 25
10.0
 16
0.0
 26
0.0
 36
1.0
 17
0.0
 27
0.0
 37
0.0
 40
1702.665682682
 41
0.3888860826
 42
50.0
 43
0.0
 44
0.0
 50
0.0
 51
0.0
 71
     0
 72
   100
 73
     1
 74
     3
 75
     0
 76
     0
 77
     0
 78
     0
281
     0
 65
     1
110
0.0
120
0.0
130
0.0
111
1.0
121
0.0
131
0.0
112
0.0
122
1.0
132
0.0
 79
     0
146
0.0
  0
ENDTAB
  0
TABLE
  2
LTYPE
  5
5
330
0
100
AcDbSymbolTable
 70
     6
  0
LTYPE
  5
14
330
5
100
AcDbSymbolTableRecord
100
AcDbLinetypeTableRecord
  2
ByBlock
 70
     0
  3

 72
    65
 73
     0
 40
0.0
  0
LTYPE
  5
15
330
5
100
AcDbSymbolTableRecord
100
AcDbLinetypeTableRecord
  2
ByLayer
 70
     0
  3

 72
    65
 73
     0
 40
0.0
  0
LTYPE
  5
16
330
5
100
AcDbSymbolTableRecord
100
AcDbLinetypeTableRecord
  2
Continuous
 70
     0
  3
Solid line
 72
    65
 73
     0
 40
0.0
  0
LTYPE
  5
5E
330
5
100
AcDbSymbolTableRecord
100
AcDbLinetypeTableRecord
  2
HIDDEN
 70
     0
  3
Hidden __ __ __ __ __ __ __ __ __ __ __ __ __ __
 72
    65
 73
     2
 40
1.905
 49
1.27
 74
     0
 49
-0.635
 74
     0
  0
LTYPE
  5
5F
330
5
100
AcDbSymbolTableRecord
100
AcDbLinetypeTableRecord
  2
PHANTOM
 70
     0
  3
Phantom ______  __  __  ______  __  __  ______
 72
    65
 73
     6
 40
12.7
 49
6.35
 74
     0
 49
-1.27
 74
     0
 49
1.27
 74
     0
 49
-1.27
 74
     0
 49
1.27
 74
     0
 49
-1.27
 74
     0
  0
LTYPE
  5
60
330
5
100
AcDbSymbolTableRecord
100
AcDbLinetypeTableRecord
  2
CENTER
 70
     0
  3
Center ____ _ ____ _ ____ _ ____ _ ____ _ ____
 72
    65
 73
     4
 40
10.16
 49
6.35
 74
     0
 49
-1.27
 74
     0
 49
1.27
 74
     0
 49
-1.27
 74
     0
  0
LTYPE
  5
61
330
5
100
AcDbSymbolTableRecord
100
AcDbLinetypeTableRecord
  2
CENTERX2
 70
     0
  3
Center (2x) ________  __  ________  __  _____
 72
    65
 73
     4
 40
20.32
 49
12.7
 74
     0
 49
-2.54
 74
     0
 49
2.54
 74
     0
 49
-2.54
 74
     0
  0
LTYPE
  5
62
330
5
100
AcDbSymbolTableRecord
100
AcDbLinetypeTableRecord
  2
DOT2
 70
     0
  3
Dot (.5x) ........................................
 72
    65
 73
     2
 40
0.635
 49
0.0
 74
     0
 49
-0.635
 74
     0
  0
ENDTAB
  0
TABLE
  2
LAYER
  5
2
330
0
100
AcDbSymbolTable
 70
     1
  0
LAYER
  5
10
330
2
100
AcDbSymbolTableRecord
100
AcDbLayerTableRecord
  2
0
 70
     0
 62
     7
  6
Continuous
370
    -3
390
F
  0
ENDTAB
  0
TABLE
  2
STYLE
  5
3
330
0
100
AcDbSymbolTable
 70
     1
  0
STYLE
  5
11
330
3
100
AcDbSymbolTableRecord
100
AcDbTextStyleTableRecord
  2
Standard
 70
     0
 40
0.0
 41
1.0
 50
0.0
 71
     0
 42
4.0
  3
txt
  4

  0
ENDTAB
  0
TABLE
  2
VIEW
  5
6
330
0
100
AcDbSymbolTable
 70
     0
  0
ENDTAB
  0
TABLE
  2
UCS
  5
7
330
0
100
AcDbSymbolTable
 70
     0
  0
ENDTAB
  0
TABLE
  2
APPID
  5
9
330
0
100
AcDbSymbolTable
 70
     1
  0
APPID
  5
12
330
9
100
AcDbSymbolTableRecord
100
AcDbRegAppTableRecord
  2
ACAD
 70
     0
  0
ENDTAB
  0
TABLE
  2
DIMSTYLE
  5
A
330
0
100
AcDbSymbolTable
 70
     1
100
AcDbDimStyleTable
  0
DIMSTYLE
105
27
330
A
100
AcDbSymbolTableRecord
100
AcDbDimStyleTableRecord
  2
ISO-25
 70
     0
 41
2.5
 42
0.625
 43
3.75
 44
1.25
 73
     0
 74
     0
 77
     1
 78
     8
140
2.5
141
2.5
143
0.0393700787
147
0.625
171
     3
172
     1
178
     0
271
     2
272
     2
274
     3
278
    44
283
     0
284
     8
340
11
  0
ENDTAB
  0
TABLE
  2
BLOCK_RECORD
  5
1
330
0
100
AcDbSymbolTable
 70
     1
  0
BLOCK_RECORD
  5
1F
330
1
100
AcDbSymbolTableRecord
100
AcDbBlockTableRecord
  2
*Model_Space
340
22
  0
BLOCK_RECORD
  5
1B
330
1
100
AcDbSymbolTableRecord
100
AcDbBlockTableRecord
  2
*Paper_Space
340
1E
  0
BLOCK_RECORD
  5
23
330
1
100
AcDbSymbolTableRecord
100
AcDbBlockTableRecord
  2
*Paper_Space0
340
26
  0
ENDTAB
  0
ENDSEC
  0
SECTION
  2
BLOCKS
  0
BLOCK
  5
20
330
1F
100
AcDbEntity
  8
0
100
AcDbBlockBegin
  2
*Model_Space
 70
     0
 10
0.0
 20
0.0
 30
0.0
  3
*Model_Space
  1

  0
ENDBLK
  5
21
330
1F
100
AcDbEntity
  8
0
100
AcDbBlockEnd
  0
BLOCK
  5
1C
330
1B
100
AcDbEntity
 67
     1
  8
0
100
AcDbBlockBegin
  2
*Paper_Space
 70
     0
 10
0.0
 20
0.0
 30
0.0
  3
*Paper_Space
  1

  0
ENDBLK
  5
1D
330
1B
100
AcDbEntity
 67
     1
  8
0
100
AcDbBlockEnd
  0
BLOCK
  5
24
330
23
100
AcDbEntity
  8
0
100
AcDbBlockBegin
  2
*Paper_Space0
 70
     0
 10
0.0
 20
0.0
 30
0.0
  3
*Paper_Space0
  1

  0
ENDBLK
  5
25
330
23
100
AcDbEntity
  8
0
100
AcDbBlockEnd
  0
ENDSEC
  0
SECTION
  2
ENTITIES
  0
CIRCLE
  5
63
330
1F
100
AcDbEntity
  8
0
  6
Continuous
 62
     7
370
    25
100
AcDbCircle
 10
133.0126471121
 20
786.8949892999
 30
0.0
 40
2.250000000000057
  0
CIRCLE
  5
64
330
1F
100
AcDbEntity
  8
0
  6
Continuous
 62
     7
370
    25
100
AcDbCircle
 10
177.0116674527
 20
763.144490167
 30
0.0
 40
2.250000000000114
  0
CIRCLE
  5
65
330
1F
100
AcDbEntity
  8
0
  6
Continuous
 62
     7
370
    25
100
AcDbCircle
 10
221.0106877933
 20
739.393991034
 30
0.0
 40
2.250000000000114
  0
CIRCLE
  5
66
330
1F
100
AcDbEntity
  8
0
  6
Continuous
 62
     7
370
    25
100
AcDbCircle
 10
265.009708134
 20
715.6434919011
 30
0.0
 40
2.250000000000114
  0
CIRCLE
  5
67
330
1F
100
AcDbEntity
  8
0
  6
Continuous
 62
     7
370
    25
100
AcDbCircle
 10
145.0369911514
 20
430.7196632427
 30
0.0
 40
1.750000000000313
  0
CIRCLE
  5
68
330
1F
100
AcDbEntity
  8
0
  6
Continuous
 62
     7
370
    25
100
AcDbCircle
 10
63.9154168417
 20
464.6974895641
 30
0.0
 40
1.749999999999879
  0
CIRCLE
  5
69
330
1F
100
AcDbEntity
  8
0
  6
Continuous
 62
     7
370
    25
100
AcDbCircle
 10
-17.2061574679
 20
498.6753158855
 30
0.0
 40
1.749999999999957
  0
CIRCLE
  5
6A
330
1F
100
AcDbEntity
  8
0
  6
Continuous
 62
     7
370
    25
100
AcDbCircle
 10
-91.0151741269
 20
-505.9248404453
 30
0.0
 40
1.749999999999915
  0
CIRCLE
  5
6B
330
1F
100
AcDbEntity
  8
0
  6
Continuous
 62
     7
370
    25
100
AcDbCircle
 10
-178.5024373284
 20
-496.9147751013
 30
0.0
 40
1.749999999999972
  0
CIRCLE
  5
6C
330
1F
100
AcDbEntity
  8
0
  6
Continuous
 62
     7
370
    25
100
AcDbCircle
 10
-265.98970053
 20
-487.9047097572
 30
0.0
 40
1.749999999999943
  0
CIRCLE
  5
6D
330
1F
100
AcDbEntity
  8
0
  6
Continuous
 62
     7
370
    25
100
AcDbCircle
 10
-93.1298957497
 20
-824.7400405304
 30
0.0
 40
1.750000000000242
  0
CIRCLE
  5
6E
330
1F
100
AcDbEntity
  8
0
  6
Continuous
 62
     7
370
    25
100
AcDbCircle
 10
-195.6298957497
 20
-824.7400405304
 30
0.0
 40
1.750000000000313
  0
CIRCLE
  5
6F
330
1F
100
AcDbEntity
  8
0
  6
Continuous
 62
     7
370
    25
100
AcDbCircle
 10
-298.1298957497
 20
-824.7400405304
 30
0.0
 40
1.750000000000455
  0
SPLINE
  5
70
330
1F
100
AcDbEntity
  8
0
  6
Continuous
 62
     7
370
    25
100
AcDbSpline
210
0.0
220
0.0
230
1.0
 70
     8
 71
     3
 72
    15
 73
    11
 74
     0
 42
0.00000001
 43
0.00000001
 40
0.0
 40
0.0
 40
0.0
 40
0.0
 40
0.1111199413582247
 40
0.2272340335041687
 40
0.3504949513618915
 40
0.4829432242709573
 40
0.6169492324196467
 40
0.7459749245788786
 40
0.8721326624134371
 40
1.0
 40
1.0
 40
1.0
 40
1.0
 10
-254.9074327934455
 20
-718.400632185157
 30
0.0
 10
-254.8916315838925
 20
-718.3616935475926
 30
0.0
 10
-254.8593189986167
 20
-718.2820662226968
 30
0.0
 10
-254.7851560237583
 20
-718.171391662816
 30
0.0
 10
-254.6895959026098
 20
-718.0681860776634
 30
0.0
 10
-254.5775906294078
 20
-717.9723183060934
 30
0.0
 10
-254.4520265219755
 20
-717.8906211753759
 30
0.0
 10
-254.3175994016669
 20
-717.8301157349816
 30
0.0
 10
-254.1767324612927
 20
-717.7931598712136
 30
0.0
 10
-254.0807480092335
 20
-717.7887553216246
 30
0.0
 10
-254.0324327934455
 20
-717.7865382254254
 30
0.0
  0
LINE
  5
71
330
1F
100
AcDbEntity
  8
0
  6
Continuous
 62
     7
370
    25
100
AcDbLine
 10
-254.0324327934
 20
-717.7865382254
 30
0.0
 11
-253.2992113169
 21
-717.7865382254
 31
0.0
  0
LINE
  5
72
330
1F
100
AcDbEntity
  8
0
  6
Continuous
 62
     7
370
    25
100
AcDbLine
 10
-253.2992113169
 20
-717.7865382254
 30
0.0
 11
-252.9804193706
 21
-716.8653972858
 31
0.0
  0
SPLINE
  5
73
330
1F
100
AcDbEntity
  8
0
  6
Continuous
 62
     7
370
    25
100
AcDbSpline
210
0.0
220
0.0
230
1.0
 70
     8
 71
     3
 72
    15
 73
    11
 74
     0
 42
0.00000001
 43
0.00000001
 40
0.0
 40
0.0
 40
0.0
 40
0.0
 40
0.0833965821548605
 40
0.1821215139847638
 40
0.2984803035576868
 40
0.4355587687713122
 40
0.5797724496758637
 40
0.7192181126111046
 40
0.8591633662782647
 40
1.0
 40
1.0
 40
1.0
 40
1.0
 10
-252.9804193706267
 20
-716.8653972858281
 30
0.0
 10
-252.9760103093811
 20
-716.8556873825469
 30
0.0
 10
-252.9663817983731
 20
-716.8344828890231
 30
0.0
 10
-252.9425155063273
 20
-716.8044688567172
 30
0.0
 10
-252.911101587623
 20
-716.7724016009405
 30
0.0
 10
-252.8720310743668
 20
-716.7399508762421
 30
0.0
 10
-252.8273273475046
 20
-716.7100442738329
 30
0.0
 10
-252.777906191463
 20
-716.6876152436274
 30
0.0
 10
-252.7254661514656
 20
-716.6749115231436
 30
0.0
 10
-252.6896563038304
 20
-716.6732684235911
 30
0.0
 10
-252.6716945384119
 20
-716.6724442656939
 30
0.0
  0
SPLINE
  5
74
330
1F
100
AcDbEntity
  8
0
  6
Continuous
 62
     7
370
    25
100
AcDbSpline
210
0.0
220
0.0
230
1.0
 70
     8
 71
     3
 72
    15
 73
    11
 74
     0
 42
0.00000001
 43
0.00000001
 40
0.0
 40
0.0
 40
0.0
 40
0.0
 40
0.1195153212553166
 40
0.2313584169559865
 40
0.3421999125233643
 40
0.4564679613169393
 40
0.5741022683120591
 40
0.6954694543523167
 40
0.83583308071842
 40
0.9999999999999999
 40
0.9999999999999999
 40
0.9999999999999999
 40
0.9999999999999999
 10
-252.6716945384119
 20
-716.6724442656939
 30
0.0
 10
-252.6607265375699
 20
-716.6731157760207
 30
0.0
 10
-252.6394946211485
 20
-716.6744156894093
 30
0.0
 10
-252.6091209853472
 20
-716.6837720446274
 30
0.0
 10
-252.5827037167092
 20
-716.7003554220901
 30
0.0
 10
-252.5598197653837
 20
-716.7221283254274
 30
0.0
 10
-252.5419536758786
 20
-716.7499993180102
 30
0.0
 10
-252.5361036157779
 20
-716.7849060929036
 30
0.0
 10
-252.5376317782584
 20
-716.824278849833
 30
0.0
 10
-252.5462456087677
 20
-716.8509950595135
 30
0.0
 10
-252.5508891692844
 20
-716.8653972858281
 30
0.0
  0
LINE
  5
75
330
1F
100
AcDbEntity
  8
0
  6
Continuous
 62
     7
370
    25
100
AcDbLine
 10
-252.5508891693
 20
-716.8653972858
 30
0.0
 11
-253.8067616525
 21
-720.4929140644
 31
0.0
  0
SPLINE
  5
76
330
1F
100
AcDbEntity
  8
0
  6
Continuous
 62
     7
370
    25
100
AcDbSpline
210
0.0
220
0.0
230
1.0
 70
     8
 71
     3
 72
    15
 73
    11
 74
     0
 42
0.00000001
 43
0.00000001
 40
0.0
 40
0.0
 40
0.0
 40
0.0
 40
0.1404344887854101
 40
0.2709794804566193
 40
0.392480021674166
 40
0.508485449901424
 40
0.6254122623229741
 40
0.7443800080293619
 40
0.8671864059573905
 40
0.9999999999999999
 40
0.9999999999999999
 40
0.9999999999999999
 40
0.9999999999999999
 10
-253.8067616525059
 20
-720.4929140643516
 30
0.0
 10
-253.8125059154274
 20
-720.5081925774739
 30
0.0
 10
-253.8235899261685
 20
-720.5376736799
 30
0.0
 10
-253.8462421752071
 20
-720.5774962380026
 30
0.0
 10
-253.873498591482
 20
-720.6106579161246
 30
0.0
 10
-253.9043604470605
 20
-720.6380917329184
 30
0.0
 10
-253.9388744304655
 20
-720.6603893621013
 30
0.0
 10
-253.9780023741276
 20
-720.675452232878
 30
0.0
 10
-254.0209041946517
 20
-720.6837024457986
 30
0.0
 10
-254.0505741120472
 20
-720.6851269490953
 30
0.0
 10
-254.0659898404253
 20
-720.6858670844858
 30
0.0
  0
LINE
  5
77
330
1F
100
AcDbEntity
  8
0
  6
Continuous
 62
     7
370
    25
100
AcDbLine
 10
-254.0659898404
 20
-720.6858670845
 30
0.0
 11
-255.039983129
 21
-720.6858670845
 31
0.0
  0
SPLINE
  5
78
330
1F
100
AcDbEntity
  8
0
  6
Continuous
 62
     7
370
    25
100
AcDbSpline
210
0.0
220
0.0
230
1.0
 70
     8
 71
     3
 72
    23
 73
    19
 74
     0
 42
0.00000001
 43
0.00000001
 40
0.0
 40
0.0
 40
0.0
 40
0.0
 40
0.0747632638915978
 40
0.1455938983464419
 40
0.2111406625558771
 40
0.2741865823440632
 40
0.334034165379915
 40
0.393439430975556
 40
0.4521532441238799
 40
0.5126652709065667
 40
0.5726193759782032
 40
0.6312461841691649
 40
0.6887669341094574
 40
0.7476037840428255
 40
0.8067003368809296
 40
0.8678278508789384
 40
0.9325911594783634
 40
0.9999999999999999
 40
0.9999999999999999
 40
0.9999999999999999
 40
0.9999999999999999
 10
-255.0399831290159
 20
-720.6858670844858
 30
0.0
 10
-255.0626725537697
 20
-720.6855644777344
 30
0.0
 10
-255.1068579147238
 20
-720.6849751816771
 30
0.0
 10
-255.1703017814286
 20
-720.675271804351
 30
0.0
 10
-255.2291679958035
 20
-720.661190892433
 30
0.0
 10
-255.2829549090365
 20
-720.6413771303274
 30
0.0
 10
-255.3316290206584
 20
-720.6147990419249
 30
0.0
 10
-255.3752558139318
 20
-720.582837598571
 30
0.0
 10
-255.4147965606277
 20
-720.5455360975498
 30
0.0
 10
-255.4476840113236
 20
-720.5020214855733
 30
0.0
 10
-255.4751107824745
 20
-720.4550949575234
 30
0.0
 10
-255.4976226236321
 20
-720.4064906353532
 30
0.0
 10
-255.5116834195848
 20
-720.3551221035721
 30
0.0
 10
-255.5198772391025
 20
-720.3025155814425
 30
0.0
 10
-255.5230230584341
 20
-720.248122310527
 30
0.0
 10
-255.5169716080212
 20
-720.1922299255396
 30
0.0
 10
-255.5067579698917
 20
-720.1344054726466
 30
0.0
 10
-255.4943154762694
 20
-720.0962607776712
 30
0.0
 10
-255.4879697061972
 20
-720.0768066818011
 30
0.0
  0
LINE
  5
79
330
1F
100
AcDbEntity
  8
0
  6
Continuous
 62
     7
370
    25
100
AcDbLine
 10
-255.4879697062
 20
-720.0768066818
 30
0.0
 11
-254.9074327934
 21
-718.4006321852
 31
0.0
  0
CIRCLE
  5
7A
330
1F
100
AcDbEntity
  8
0
  6
Continuous
 62
     7
370
    25
100
AcDbCircle
 10
55.7163094336
 20
735.1921190038
 30
0.0
 40
1.749999999999972
  0
CIRCLE
  5
7B
330
1F
100
AcDbEntity
  8
0
  6
Continuous
 62
     7
370
    25
100
AcDbCircle
 10
-6.5979164022
 20
604.0803522945
 30
0.0
 40
1.75000000000002
  0
CIRCLE
  5
7C
330
1F
100
AcDbEntity
  8
0
  6
Continuous
 62
     7
370
    25
100
AcDbCircle
 10
-63.4297599249
 20
470.5007892133
 30
0.0
 40
1.750000000000071
  0
CIRCLE
  5
7D
330
1F
100
AcDbEntity
  8
0
  6
Continuous
 62
     7
370
    25
100
AcDbCircle
 10
-114.6817390816
 20
334.6825550042
 30
0.0
 40
1.75
  0
CIRCLE
  5
7E
330
1F
100
AcDbEntity
  8
0
  6
Continuous
 62
     7
370
    25
100
AcDbCircle
 10
-160.2659428029
 20
196.8586148406
 30
0.0
 40
1.750000000000085
  0
CIRCLE
  5
7F
330
1F
100
AcDbEntity
  8
0
  6
Continuous
 62
     7
370
    25
100
AcDbCircle
 10
-200.1041817945
 20
57.2653742263
 30
0.0
 40
1.750000000000028
  0
CIRCLE
  5
80
330
1F
100
AcDbEntity
  8
0
  6
Continuous
 62
     7
370
    25
100
AcDbCircle
 10
-234.1281226523
 20
-83.8577265037
 30
0.0
 40
1.749999999999972
  0
CIRCLE
  5
81
330
1F
100
AcDbEntity
  8
0
  6
Continuous
 62
     7
370
    25
100
AcDbCircle
 10
-262.2794050736
 20
-226.2686228888
 30
0.0
 40
1.750000000000057
  0
CIRCLE
  5
82
330
1F
100
AcDbEntity
  8
0
  6
Continuous
 62
     7
370
    25
100
AcDbCircle
 10
-284.5097419604
 20
-369.7230415486
 30
0.0
 40
1.75
  0
CIRCLE
  5
83
330
1F
100
AcDbEntity
  8
0
  6
Continuous
 62
     7
370
    25
100
AcDbCircle
 10
-300.7810022449
 20
-513.9749191791
 30
0.0
 40
1.75
  0
CIRCLE
  5
84
330
1F
100
AcDbEntity
  8
0
  6
Continuous
 62
     7
370
    25
100
AcDbCircle
 10
-311.0652762949
 20
-658.7768246168
 30
0.0
 40
1.75
  0
CIRCLE
  5
85
330
1F
100
AcDbEntity
  8
0
  6
Continuous
 62
     7
370
    25
100
AcDbCircle
 10
-315.3174326469
 20
-800.8928562734
 30
0.0
 40
1.749999999999943
  0
CIRCLE
  5
86
330
1F
100
AcDbEntity
  8
0
  6
Continuous
 62
     7
370
    25
100
AcDbCircle
 10
-73.8069799111
 20
-736.5804853535
 30
0.0
 40
1.750000000000028
  0
CIRCLE
  5
87
330
1F
100
AcDbEntity
  8
0
  6
Continuous
 62
     7
370
    25
100
AcDbCircle
 10
-66.9477999832
 20
-601.5359969875
 30
0.0
 40
1.750000000000028
  0
CIRCLE
  5
88
330
1F
100
AcDbEntity
  8
0
  6
Continuous
 62
     7
370
    25
100
AcDbCircle
 10
-54.5027212948
 20
-466.8913453903
 30
0.0
 40
1.749999999999979
  0
CIRCLE
  5
89
330
1F
100
AcDbEntity
  8
0
  6
Continuous
 62
     7
370
    25
100
AcDbCircle
 10
-36.4930905371
 20
-332.877482722
 30
0.0
 40
1.75000000000005
  0
CIRCLE
  5
8A
330
1F
100
AcDbEntity
  8
0
  6
Continuous
 62
     7
370
    25
100
AcDbCircle
 10
0.8847185914
 20
-133.5418660593
 30
0.0
 40
1.749999999999968
  0
CIRCLE
  5
8B
330
1F
100
AcDbEntity
  8
0
  6
Continuous
 62
     7
370
    25
100
AcDbCircle
 10
16.0867698147
 20
-67.6601286515
 30
0.0
 40
1.749999999999968
  0
CIRCLE
  5
8C
330
1F
100
AcDbEntity
  8
0
  6
Continuous
 62
     7
370
    25
100
AcDbCircle
 10
50.5668106624
 20
63.0884429294
 30
0.0
 40
1.749999999999964
  0
CIRCLE
  5
8D
330
1F
100
AcDbEntity
  8
0
  6
Continuous
 62
     7
370
    25
100
AcDbCircle
 10
90.4311807849
 20
192.2971662496
 30
0.0
 40
1.750000000000014
  0
CIRCLE
  5
8E
330
1F
100
AcDbEntity
  8
0
  6
Continuous
 62
     7
370
    25
100
AcDbCircle
 10
135.6115019562
 20
319.7444132429
 30
0.0
 40
1.750000000000028
  0
CIRCLE
  5
8F
330
1F
100
AcDbEntity
  8
0
  6
Continuous
 62
     7
370
    25
100
AcDbCircle
 10
186.0302776501
 20
445.2115772533
 30
0.0
 40
1.749999999999915
  0
CIRCLE
  5
90
330
1F
100
AcDbEntity
  8
0
  6
Continuous
 62
     7
370
    25
100
AcDbCircle
 10
241.6010259676
 20
568.4834480055
 30
0.0
 40
1.749999999999972
  0
CIRCLE
  5
91
330
1F
100
AcDbEntity
  8
0
  6
Continuous
 62
     7
370
    25
100
AcDbCircle
 10
301.7975018621
 20
688.5318562467
 30
0.0
 40
1.749999999999886
  0
ARC
  5
92
330
1F
100
AcDbEntity
  8
0
  6
Continuous
 62
     7
370
    25
100
AcDbCircle
 10
3189.6201042503
 20
-834.6400405304
 30
0.0
 40
3514.200000000001
100
AcDbArc
 50
151.64
 51
180.0
  0
LINE
  5
93
330
1F
100
AcDbEntity
  8
0
  6
Continuous
 62
     7
370
    25
100
AcDbLine
 10
-324.5798957497
 20
-834.6400405304
 30
0.0
 11
-66.1798957497
 21
-834.6400405304
 31
0.0
  0
ARC
  5
94
330
1F
100
AcDbEntity
  8
0
  6
Continuous
 62
     7
370
    25
100
AcDbCircle
 10
3189.6201042503
 20
-834.6400405304
 30
0.0
 40
3255.8
100
AcDbArc
 50
151.64
 51
180.0
  0
LINE
  5
95
330
1F
100
AcDbEntity
  8
0
  6
Continuous
 62
     7
370
    25
100
AcDbLine
 10
324.5798957497
 20
711.8974610113
 30
0.0
 11
97.1929586293
 21
834.6400405304
 31
0.0
  0
CIRCLE
  5
96
330
1F
100
AcDbEntity
  8
0
  6
Continuous
 62
     7
370
    25
100
AcDbCircle
 10
271.2889435224
 20
629.2299148701
 30
0.0
 40
1.75
  0
CIRCLE
  5
97
330
1F
100
AcDbEntity
  8
0
  6
Continuous
 62
     7
370
    25
100
AcDbCircle
 10
213.1774073888
 20
507.1352321214
 30
0.0
 40
1.750000000000085
  0
CIRCLE
  5
98
330
1F
100
AcDbEntity
  8
0
  6
Continuous
 62
     7
370
    25
100
AcDbCircle
 10
160.1712791755
 20
382.7390402218
 30
0.0
 40
1.750000000000085
  0
CIRCLE
  5
99
330
1F
100
AcDbEntity
  8
0
  6
Continuous
 62
     7
370
    25
100
AcDbCircle
 10
112.361478794
 20
256.2547124385
 30
0.0
 40
1.750000000000014
  0
CIRCLE
  5
9A
330
1F
100
AcDbEntity
  8
0
  6
Continuous
 62
     7
370
    25
100
AcDbCircle
 10
69.8300130419
 20
127.8992037594
 30
0.0
 40
1.749999999999972
  0
CIRCLE
  5
9B
330
1F
100
AcDbEntity
  8
0
  6
Continuous
 62
     7
370
    25
100
AcDbCircle
 10
32.6498349386
 20
-2.1073212442
 30
0.0
 40
1.75000000000005
  0
CIRCLE
  5
9C
330
1F
100
AcDbEntity
  8
0
  6
Continuous
 62
     7
370
    25
100
AcDbCircle
 10
-25.4108501947
 20
-266.178984731
 30
0.0
 40
1.750000000000053
  0
CIRCLE
  5
9D
330
1F
100
AcDbEntity
  8
0
  6
Continuous
 62
     7
370
    25
100
AcDbCircle
 10
-12.9497991202
 20
-199.7242791685
 30
0.0
 40
1.749999999999968
  0
CIRCLE
  5
9E
330
1F
100
AcDbEntity
  8
0
  6
Continuous
 62
     7
370
    25
100
AcDbCircle
 10
-46.1917673746
 20
-399.7911685633
 30
0.0
 40
1.750000000000036
  0
CIRCLE
  5
9F
330
1F
100
AcDbEntity
  8
0
  6
Continuous
 62
     7
370
    25
100
AcDbCircle
 10
-61.4223880294
 20
-534.149236359
 30
0.0
 40
1.75000000000005
  0
CIRCLE
  5
A0
330
1F
100
AcDbEntity
  8
0
  6
Continuous
 62
     7
370
    25
100
AcDbCircle
 10
-71.0765875064
 20
-669.0227275266
 30
0.0
 40
1.750000000000028
  0
CIRCLE
  5
A1
330
1F
100
AcDbEntity
  8
0
  6
Continuous
 62
     7
370
    25
100
AcDbCircle
 10
-75.129060477
 20
-803.2569016187
 30
0.0
 40
1.750000000000028
  0
CIRCLE
  5
A2
330
1F
100
AcDbEntity
  8
0
  6
Continuous
 62
     7
370
    25
100
AcDbCircle
 10
-313.9563787877
 20
-731.3064459098
 30
0.0
 40
1.750000000000057
  0
CIRCLE
  5
A3
330
1F
100
AcDbEntity
  8
0
  6
Continuous
 62
     7
370
    25
100
AcDbCircle
 10
-306.6728561971
 20
-586.3226247096
 30
0.0
 40
1.749999999999943
  0
CIRCLE
  5
A4
330
1F
100
AcDbEntity
  8
0
  6
Continuous
 62
     7
370
    25
100
AcDbCircle
 10
-293.3922412417
 20
-441.7647353449
 30
0.0
 40
1.749999999999943
  0
CIRCLE
  5
A5
330
1F
100
AcDbEntity
  8
0
  6
Continuous
 62
     7
370
    25
100
AcDbCircle
 10
-274.1373137844
 20
-297.8807338724
 30
0.0
 40
1.750000000000057
  0
CIRCLE
  5
A6
330
1F
100
AcDbEntity
  8
0
  6
Continuous
 62
     7
370
    25
100
AcDbCircle
 10
-248.9411012573
 20
-154.9174204474
 30
0.0
 40
1.75
  0
CIRCLE
  5
A7
330
1F
100
AcDbEntity
  8
0
  6
Continuous
 62
     7
370
    25
100
AcDbCircle
 10
-217.8468220107
 20
-13.1200159956
 30
0.0
 40
1.749999999999943
  0
CIRCLE
  5
A8
330
1F
100
AcDbEntity
  8
0
  6
Continuous
 62
     7
370
    25
100
AcDbCircle
 10
-180.9078111818
 20
127.2682584084
 30
0.0
 40
1.749999999999943
  0
CIRCLE
  5
A9
330
1F
100
AcDbEntity
  8
0
  6
Continuous
 62
     7
370
    25
100
AcDbCircle
 10
-138.1874292104
 20
266.0065987306
 30
0.0
 40
1.75
  0
CIRCLE
  5
AA
330
1F
100
AcDbEntity
  8
0
  6
Continuous
 62
     7
370
    25
100
AcDbCircle
 10
-89.7589531586
 20
402.8570310224
 30
0.0
 40
1.750000000000043
  0
CIRCLE
  5
AB
330
1F
100
AcDbEntity
  8
0
  6
Continuous
 62
     7
370
    25
100
AcDbCircle
 10
-35.7054510209
 20
537.5848196104
 30
0.0
 40
1.749999999999915
  0
CIRCLE
  5
AC
330
1F
100
AcDbEntity
  8
0
  6
Continuous
 62
     7
370
    25
100
AcDbCircle
 10
23.8803607603
 20
669.9588697317
 30
0.0
 40
1.750000000000025
  0
CIRCLE
  5
AD
330
1F
100
AcDbEntity
  8
0
  6
Continuous
 62
     7
370
    25
100
AcDbCircle
 10
89.3134952699
 20
800.5434171613
 30
0.0
 40
1.749999999999915
  0
SPLINE
  5
AE
330
1F
100
AcDbEntity
  8
0
  6
Continuous
 62
     7
370
    25
100
AcDbSpline
210
0.0
220
0.0
230
1.0
 70
     8
 71
     3
 72
    15
 73
    11
 74
     0
 42
0.00000001
 43
0.00000001
 40
0.0
 40
0.0
 40
0.0
 40
0.0
 40
0.1661575911152015
 40
0.3102195896050725
 40
0.4437173901803911
 40
0.5745936603578087
 40
0.6995456317374973
 40
0.8077748071538658
 40
0.9047194381128646
 40
1.0
 40
1.0
 40
1.0
 40
1.0
 10
-240.8805871558615
 20
-718.1623771515999
 30
0.0
 10
-240.8974895332574
 20
-718.1617615361453
 30
0.0
 10
-240.929046614363
 20
-718.1606121696169
 30
0.0
 10
-240.9723312220769
 20
-718.1472625965795
 30
0.0
 10
-241.0094826940857
 20
-718.1276213813118
 30
0.0
 10
-241.0355558055068
 20
-718.097169743621
 30
0.0
 10
-241.0544829946085
 20
-718.0654082112018
 30
0.0
 10
-241.066185461942
 20
-718.0338193161208
 30
0.0
 10
-241.0692863666873
 20
-718.0029859150576
 30
0.0
 10
-241.0648387117862
 20
-717.9839120573736
 30
0.0
 10
-241.0626341357273
 20
-717.9744576885126
 30
0.0
  0
SPLINE
  5
AF
330
1F
100
AcDbEntity
  8
0
  6
Continuous
 62
     7
370
    25
100
AcDbSpline
210
0.0
220
0.0
230
1.0
 70
     8
 71
     3
 72
    15
 73
    11
 74
     0
 42
0.00000001
 43
0.00000001
 40
0.0
 40
0.0
 40
0.0
 40
0.0
 40
0.077947810562771
 40
0.1716575651215679
 40
0.281136264027449
 40
0.4076139428512542
 40
0.5441791131422021
 40
0.6866472630077811
 40
0.8362342192263049
 40
0.9999999999999999
 40
0.9999999999999999
 40
0.9999999999999999
 40
0.9999999999999999
 10
-241.0626341357273
 20
-717.9744576885126
 30
0.0
 10
-241.058435825988
 20
-717.965352646681
 30
0.0
 10
-241.0491902599834
 20
-717.9453014188167
 30
0.0
 10
-241.0274723778482
 20
-717.9161910774037
 30
0.0
 10
-240.9985549053655
 20
-717.8853033198727
 30
0.0
 10
-240.9634483136409
 20
-717.8526982326222
 30
0.0
 10
-240.9201775966954
 20
-717.8232743688004
 30
0.0
 10
-240.8693697246854
 20
-717.8013192763477
 30
0.0
 10
-240.8118452535402
 20
-717.7886802642614
 30
0.0
 10
-240.7715912976614
 20
-717.7872734571325
 30
0.0
 10
-240.7505535988145
 20
-717.7865382254254
 30
0.0
  0
LINE
  5
B0
330
1F
100
AcDbEntity
  8
0
  6
Continuous
 62
     7
370
    25
100
AcDbLine
 10
-240.7505535988
 20
-717.7865382254
 30
0.0
 11
-240.0584395049
 21
-717.7865382254
 31
0.0
  0
SPLINE
  5
B1
330
1F
100
AcDbEntity
  8
0
  6
Continuous
 62
     7
370
    25
100
AcDbSpline
210
0.0
220
0.0
230
1.0
 70
     8
 71
     3
 72
    23
 73
    19
 74
     0
 42
0.00000001
 43
0.00000001
 40
0.0
 40
0.0
 40
0.0
 40
0.0
 40
0.066601828350342
 40
0.1298191257478446
 40
0.1904935444286071
 40
0.248673673247016
 40
0.3065143785359877
 40
0.3639867168227469
 40
0.422311166307771
 40
0.4829855849885104
 40
0.5435614735886377
 40
0.6037416287022295
 40
0.6639548609441108
 40
0.7251014612106149
 40
0.7883082588493895
 40
0.8544969039685169
 40
0.9250726201550267
 40
0.9999999999999999
 40
0.9999999999999999
 40
0.9999999999999999
 40
0.9999999999999999
 10
-240.0584395048548
 20
-717.7865382254254
 30
0.0
 10
-240.0304378663952
 20
-717.7873820699916
 30
0.0
 10
-239.9758575596021
 20
-717.7890268771473
 30
0.0
 10
-239.8963937593277
 20
-717.8007122331288
 30
0.0
 10
-239.8224457801784
 20
-717.8209661282596
 30
0.0
 10
-239.7531321660664
 20
-717.8484284881904
 30
0.0
 10
-239.6904877655863
 20
-717.8861884754306
 30
0.0
 10
-239.6315921481694
 20
-717.92960994648
 30
0.0
 10
-239.5793001149386
 20
-717.9826281465384
 30
0.0
 10
-239.5329610988992
 20
-718.0423883191077
 30
0.0
 10
-239.4931643906154
 20
-718.1077169909371
 30
0.0
 10
-239.4630185702826
 20
-718.1778011292955
 30
0.0
 10
-239.4415626075418
 20
-718.2512952936147
 30
0.0
 10
-239.431077420998
 20
-718.3283987933473
 30
0.0
 10
-239.4291637578484
 20
-718.4086796220499
 30
0.0
 10
-239.4383538746869
 20
-718.4924170761207
 30
0.0
 10
-239.455746841909
 20
-718.5798550078981
 30
0.0
 10
-239.4742478895616
 20
-718.6382030736034
 30
0.0
 10
-239.4837750753246
 20
-718.6682496348213
 30
0.0
  0
LINE
  5
B2
330
1F
100
AcDbEntity
  8
0
  6
Continuous
 62
     7
370
    25
100
AcDbLine
 10
-239.4837750753
 20
-718.6682496348
 30
0.0
 11
-240.2488757465
 21
-720.8779811784
 31
0.0
  0
SPLINE
  5
B3
330
1F
100
AcDbEntity
  8
0
  6
Continuous
 62
     7
370
    25
100
AcDbSpline
210
0.0
220
0.0
230
1.0
 70
     8
 71
     3
 72
    23
 73
    19
 74
     0
 42
0.00000001
 43
0.00000001
 40
0.0
 40
0.0
 40
0.0
 40
0.0
 40
0.0599177999183709
 40
0.1193711230905498
 40
0.1799469609168952
 40
0.2407618229609395
 40
0.3036276802249385
 40
0.3673400933518594
 40
0.4337179434939187
 40
0.5015238060303637
 40
0.5695010426911596
 40
0.6349527411679079
 40
0.6982376176952366
 40
0.7602476790804439
 40
0.8205883069527652
 40
0.8804101385226333
 40
0.9404452906007315
 40
1.0
 40
1.0
 40
1.0
 40
1.0
 10
-240.2488757464656
 20
-720.8779811784455
 30
0.0
 10
-240.2599382745353
 20
-720.9072268493575
 30
0.0
 10
-240.281977575072
 20
-720.965491481688
 30
0.0
 10
-240.322430904922
 20
-721.0503990471303
 30
0.0
 10
-240.3714476017294
 20
-721.1311408898495
 30
0.0
 10
-240.4263575584521
 20
-721.2101378334218
 30
0.0
 10
-240.4883545368464
 20
-721.285839620223
 30
0.0
 10
-240.5567291310675
 20
-721.3598504335736
 30
0.0
 10
-240.6330506484661
 20
-721.4295336726577
 30
0.0
 10
-240.7147357481178
 20
-721.4963221672309
 30
0.0
 10
-240.7999227090277
 20
-721.5578439247653
 30
0.0
 10
-240.8873779602209
 20
-721.6117089386452
 30
0.0
 10
-240.9758209690885
 20
-721.6576368616142
 30
0.0
 10
-241.0656783947459
 20
-721.6939762120114
 30
0.0
 10
-241.1558435328492
 20
-721.72450431244
 30
0.0
 10
-241.2479664019313
 20
-721.7439289697365
 30
0.0
 10
-241.3407659289304
 20
-721.7573086227582
 30
0.0
 10
-241.4031911931608
 20
-721.7589000639763
 30
0.0
 10
-241.4342784310293
 20
-721.7596925878414
 30
0.0
  0
LINE
  5
B4
330
1F
100
AcDbEntity
  8
0
  6
Continuous
 62
     7
370
    25
100
AcDbLine
 10
-241.434278431
 20
-721.7596925878
 30
0.0
 11
-242.126392525
 21
-721.7596925878
 31
0.0
  0
SPLINE
  5
B5
330
1F
100
AcDbEntity
  8
0
  6
Continuous
 62
     7
370
    25
100
AcDbSpline
210
0.0
220
0.0
230
1.0
 70
     8
 71
     3
 72
    15
 73
    11
 74
     0
 42
0.00000001
 43
0.00000001
 40
0.0
 40
0.0
 40
0.0
 40
0.0
 40
0.1661726291195885
 40
0.3102476658638511
 40
0.4437575485865404
 40
0.5746456636514469
 40
0.6996089437424234
 40
0.8069646046055071
 40
0.9041926100096553
 40
1.0
 40
1.0
 40
1.0
 40
1.0
 10
-242.126392524989
 20
-721.7596925878414
 30
0.0
 10
-242.1432960987767
 20
-721.7590772814071
 30
0.0
 10
-242.17485541357
 20
-721.7579284918253
 30
0.0
 10
-242.2181253212732
 20
-721.7445751218729
 30
0.0
 10
-242.2553267344853
 20
-721.7249468060852
 30
0.0
 10
-242.2812222560532
 20
-721.6944492981195
 30
0.0
 10
-242.3007060564198
 20
-721.6629204509768
 30
0.0
 10
-242.310538120662
 20
-721.6309174636681
 30
0.0
 10
-242.3156455316486
 20
-721.6002799567157
 30
0.0
 10
-242.3102690405062
 20
-721.5812286670262
 30
0.0
 10
-242.3076005786803
 20
-721.5717731247541
 30
0.0
  0
SPLINE
  5
B6
330
1F
100
AcDbEntity
  8
0
  6
Continuous
 62
     7
370
    25
100
AcDbSpline
210
0.0
220
0.0
230
1.0
 70
     8
 71
     3
 72
    15
 73
    11
 74
     0
 42
0.00000001
 43
0.00000001
 40
0.0
 40
0.0
 40
0.0
 40
0.0
 40
0.077071319449705
 40
0.1708701533122291
 40
0.2804529212803119
 40
0.4070508281809593
 40
0.5437458155903172
 40
0.6863493938715217
 40
0.8360785455528501
 40
1.0
 40
1.0
 40
1.0
 40
1.0
 10
-242.3076005786803
 20
-721.5717731247541
 30
0.0
 10
-242.3037313027116
 20
-721.5626445839214
 30
0.0
 10
-242.2951529653649
 20
-721.542406249055
 30
0.0
 10
-242.2731987212451
 20
-721.5135449717202
 30
0.0
 10
-242.2443866613897
 20
-721.4826059148635
 30
0.0
 10
-242.2092455341948
 20
-721.4500176343878
 30
0.0
 10
-242.1659853229357
 20
-721.4205886579474
 30
0.0
 10
-242.11517442029
 20
-721.3986350403609
 30
0.0
 10
-242.0576508135395
 20
-721.3859956076143
 30
0.0
 10
-242.0173967323037
 20
-721.3845888614915
 30
0.0
 10
-241.9963589679421
 20
-721.383853661667
 30
0.0
  0
LINE
  5
B7
330
1F
100
AcDbEntity
  8
0
  6
Continuous
 62
     7
370
    25
100
AcDbLine
 10
-241.9963589679
 20
-721.3838536617
 30
0.0
 11
-241.304244874
 21
-721.3838536617
 31
0.0
  0
SPLINE
  5
B8
330
1F
100
AcDbEntity
  8
0
  6
Continuous
 62
     7
370
    25
100
AcDbSpline
210
0.0
220
0.0
230
1.0
 70
     8
 71
     3
 72
    15
 73
    11
 74
     0
 42
0.00000001
 43
0.00000001
 40
0.0
 40
0.0
 40
0.0
 40
0.0
 40
0.103371262166308
 40
0.2114144151140204
 40
0.3295835193822534
 40
0.4585843528447755
 40
0.5926203926689905
 40
0.7252615622619103
 40
0.8603415490745829
 40
1.0
 40
1.0
 40
1.0
 40
1.0
 10
-241.3042448739823
 20
-721.383853661667
 30
0.0
 10
-241.2749926355534
 20
-721.382170993649
 30
0.0
 10
-241.2151660962557
 20
-721.378729608999
 30
0.0
 10
-241.1252149176661
 20
-721.3515770270897
 30
0.0
 10
-241.0346758143784
 20
-721.3077568383792
 30
0.0
 10
-240.9433723974991
 20
-721.2500574918978
 30
0.0
 10
-240.8576401498892
 20
-721.1774523539731
 30
0.0
 10
-240.7841642895051
 20
-721.0904010066187
 30
0.0
 10
-240.7221643297248
 20
-720.9925919004621
 30
0.0
 10
-240.6942656189261
 20
-720.9199440115924
 30
0.0
 10
-240.6800838001568
 20
-720.8830147354926
 30
0.0
  0
LINE
  5
B9
330
1F
100
AcDbEntity
  8
0
  6
Continuous
 62
     7
370
    25
100
AcDbLine
 10
-240.6800838002
 20
-720.8830147355
 30
0.0
 11
-239.9116274243
 21
-718.6632160778
 31
0.0
  0
SPLINE
  5
BA
330
1F
100
AcDbEntity
  8
0
  6
Continuous
 62
     7
370
    25
100
AcDbSpline
210
0.0
220
0.0
230
1.0
 70
     8
 71
     3
 72
    15
 73
    11
 74
     0
 42
0.00000001
 43
0.00000001
 40
0.0
 40
0.0
 40
0.0
 40
0.0
 40
0.1596264141919784
 40
0.2997727952867106
 40
0.4252935581291377
 40
0.5459019809819529
 40
0.6617074946740387
 40
0.7715490590039564
 40
0.881711488775297
 40
1.0
 40
1.0
 40
1.0
 40
1.0
 10
-239.9116274243179
 20
-718.6632160777745
 30
0.0
 10
-239.9011300618551
 20
-718.6282737138679
 30
0.0
 10
-239.8814163841123
 20
-718.562653182609
 30
0.0
 10
-239.8724990412372
 20
-718.4651649661164
 30
0.0
 10
-239.8863448158957
 20
-718.3769414669357
 30
0.0
 10
-239.9226885539439
 20
-718.3017561901313
 30
0.0
 10
-239.9727552304232
 20
-718.2395035901345
 30
0.0
 10
-240.0360424305222
 20
-718.1949771386344
 30
0.0
 10
-240.1089542547701
 20
-718.1661128400939
 30
0.0
 10
-240.1613455999135
 20
-718.1636515639217
 30
0.0
 10
-240.1884730619018
 20
-718.1623771515999
 30
0.0
  0
LINE
  5
BB
330
1F
100
AcDbEntity
  8
0
  6
Continuous
 62
     7
370
    25
100
AcDbLine
 10
-240.1884730619
 20
-718.1623771516
 30
0.0
 11
-240.8805871559
 21
-718.1623771516
 31
0.0
  0
SPLINE
  5
BC
330
1F
100
AcDbEntity
  8
0
  6
Continuous
 62
     7
370
    25
100
AcDbSpline
210
0.0
220
0.0
230
1.0
 70
     8
 71
     3
 72
    23
 73
    19
 74
     0
 42
0.00000001
 43
0.00000001
 40
0.0
 40
0.0
 40
0.0
 40
0.0
 40
0.0759675294536681
 40
0.1471124821939786
 40
0.2138899601130623
 40
0.2764097953675992
 40
0.3373713010409762
 40
0.3962808614181222
 40
0.4538472293455679
 40
0.5138543155786364
 40
0.5728490259309411
 40
0.6306185016342555
 40
0.6885398407766201
 40
0.7468857286166563
 40
0.8054534511346262
 40
0.8669818621753705
 40
0.9322770412905613
 40
1.0
 40
1.0
 40
1.0
 40
1.0
 10
-252.7287415182777
 20
-720.6858670844858
 30
0.0
 10
-252.7519943080472
 20
-720.6855889571277
 30
0.0
 10
-252.797023752147
 20
-720.6850503585147
 30
0.0
 10
-252.8617978589883
 20
-720.6750942602564
 30
0.0
 10
-252.921675889771
 20
-720.6615648365207
 30
0.0
 10
-252.9762262326294
 20
-720.640905250872
 30
0.0
 10
-253.0259376831904
 20
-720.6152810777081
 30
0.0
 10
-253.0698602298958
 20
-720.5830649368487
 30
0.0
 10
-253.1085283983572
 20
-720.5452123213107
 30
0.0
 10
-253.1415997330655
 20
-720.5022777068793
 30
0.0
 10
-253.1680779839639
 20
-720.4550395170418
 30
0.0
 10
-253.189780386149
 20
-720.4060810416969
 30
0.0
 10
-253.2036287474285
 20
-720.3545420690676
 30
0.0
 10
-253.2123288364268
 20
-720.3016969777351
 30
0.0
 10
-253.213892862151
 20
-720.2469947725996
 30
0.0
 10
-253.208605097909
 20
-720.1904558537353
 30
0.0
 10
-253.1969027012252
 20
-720.1320044403345
 30
0.0
 10
-253.1846460993741
 20
-720.0932048483392
 30
0.0
 10
-253.1784059478079
 20
-720.0734509771032
 30
0.0
  0
LINE
  5
BD
330
1F
100
AcDbEntity
  8
0
  6
Continuous
 62
     7
370
    25
100
AcDbLine
 10
-253.1784059478
 20
-720.0734509771
 30
0.0
 11
-252.5987079612
 21
-718.3989543328
 31
0.0
  0
SPLINE
  5
BE
330
1F
100
AcDbEntity
  8
0
  6
Continuous
 62
     7
370
    25
100
AcDbSpline
210
0.0
220
0.0
230
1.0
 70
     8
 71
     3
 72
    15
 73
    11
 74
     0
 42
0.00000001
 43
0.00000001
 40
0.0
 40
0.0
 40
0.0
 40
0.0
 40
0.1135467801810661
 40
0.2301662399819806
 40
0.3530317935180073
 40
0.4851103768796432
 40
0.6188276431375381
 40
0.7466832855941019
 40
0.872765249909253
 40
1.0
 40
1.0
 40
1.0
 40
1.0
 10
-252.5987079612307
 20
-718.3989543328079
 30
0.0
 10
-252.5827617007737
 20
-718.3590943412695
 30
0.0
 10
-252.5504376594814
 20
-718.2782957104016
 30
0.0
 10
-252.4745483996088
 20
-718.1677918440204
 30
0.0
 10
-252.3803915143181
 20
-718.0636464442341
 30
0.0
 10
-252.2678618851924
 20
-717.9690746591966
 30
0.0
 10
-252.1428326058666
 20
-717.8880884262283
 30
0.0
 10
-252.0083973026475
 20
-717.8292198505023
 30
0.0
 10
-251.8681802144647
 20
-717.7934137958325
 30
0.0
 10
-251.7725696968754
 20
-717.7888370248364
 30
0.0
 10
-251.7245468874052
 20
-717.7865382254254
 30
0.0
  0
LINE
  5
BF
330
1F
100
AcDbEntity
  8
0
  6
Continuous
 62
     7
370
    25
100
AcDbLine
 10
-251.7245468874
 20
-717.7865382254
 30
0.0
 11
-251.1691777599
 21
-717.7865382254
 31
0.0
  0
SPLINE
  5
C0
330
1F
100
AcDbEntity
  8
0
  6
Continuous
 62
     7
370
    25
100
AcDbSpline
210
0.0
220
0.0
230
1.0
 70
     8
 71
     3
 72
    23
 73
    19
 74
     0
 42
0.00000001
 43
0.00000001
 40
0.0
 40
0.0
 40
0.0
 40
0.0
 40
0.0704579479263521
 40
0.1358457318489633
 40
0.1979247018903256
 40
0.2572833328940783
 40
0.3147595407335888
 40
0.3716660364148375
 40
0.4288501844518451
 40
0.4872635661587978
 40
0.5460322354942156
 40
0.6053908664979218
 40
0.6642287976952012
 40
0.7246453286994838
 40
0.7883859771033601
 40
0.8544690657452549
 40
0.925368800762412
 40
0.9999999999999999
 40
0.9999999999999999
 40
0.9999999999999999
 40
0.9999999999999999
 10
-251.1691777598884
 20
-717.7865382254254
 30
0.0
 10
-251.1484538345788
 20
-717.7869177652161
 30
0.0
 10
-251.1084972805871
 20
-717.7876495330597
 30
0.0
 10
-251.0507754842887
 20
-717.7961799416607
 30
0.0
 10
-250.9976258600128
 20
-717.8104797146124
 30
0.0
 10
-250.9486773111501
 20
-717.8299136330669
 30
0.0
 10
-250.9033208555298
 20
-717.8538739837494
 30
0.0
 10
-250.8639079164263
 20
-717.8857181040164
 30
0.0
 10
-250.8283872243815
 20
-717.9220139503739
 30
0.0
 10
-250.7972436381025
 20
-717.9629482862401
 30
0.0
 10
-250.7721704536586
 20
-718.0085569282226
 30
0.0
 10
-250.7527891972684
 20
-718.0569937919643
 30
0.0
 10
-250.7402805020452
 20
-718.10812898543
 30
0.0
 10
-250.7333548739622
 20
-718.1615897324078
 30
0.0
 10
-250.7334886328497
 20
-718.2176892012014
 30
0.0
 10
-250.7408582802916
 20
-718.2762957841513
 30
0.0
 10
-250.7529024180023
 20
-718.337443745646
 30
0.0
 10
-250.7663225110532
 20
-718.3781032953798
 30
0.0
 10
-250.773204605526
 20
-718.3989543328079
 30
0.0
  0
LINE
  5
C1
330
1F
100
AcDbEntity
  8
0
  6
Continuous
 62
     7
370
    25
100
AcDbLine
 10
-250.7732046055
 20
-718.3989543328
 30
0.0
 11
-251.3529025921
 21
-720.0734509771
 31
0.0
  0
SPLINE
  5
C2
330
1F
100
AcDbEntity
  8
0
  6
Continuous
 62
     7
370
    25
100
AcDbSpline
210
0.0
220
0.0
230
1.0
 70
     8
 71
     3
 72
    15
 73
    11
 74
     0
 42
0.00000001
 43
0.00000001
 40
0.0
 40
0.0
 40
0.0
 40
0.0
 40
0.1135616784574381
 40
0.2323103069947286
 40
0.3587580108318355
 40
0.4949894620611613
 40
0.6309689722958896
 40
0.7582867040610164
 40
0.8800617383876187
 40
1.0
 40
1.0
 40
1.0
 40
1.0
 10
-251.3529025921032
 20
-720.0734509771033
 30
0.0
 10
-251.3680860703924
 20
-720.1115954540716
 30
0.0
 10
-251.3991465350713
 20
-720.1896266638512
 30
0.0
 10
-251.4726160979321
 20
-720.2970935343377
 30
0.0
 10
-251.5628629005241
 20
-720.4011531064695
 30
0.0
 10
-251.6708493535734
 20
-720.4965108047599
 30
0.0
 10
-251.7885404796403
 20
-720.5804787510955
 30
0.0
 10
-251.914293038635
 20
-720.640491624799
 30
0.0
 10
-252.0427280202011
 20
-720.6792502153022
 30
0.0
 10
-252.1300454414717
 20
-720.6836726634453
 30
0.0
 10
-252.1733723907609
 20
-720.6858670844858
 30
0.0
  0
LINE
  5
C3
330
1F
100
AcDbEntity
  8
0
  6
Continuous
 62
     7
370
    25
100
AcDbLine
 10
-252.1733723908
 20
-720.6858670845
 30
0.0
 11
-252.7287415183
 21
-720.6858670845
 31
0.0
  0
SPLINE
  5
C4
330
1F
100
AcDbEntity
  8
0
  6
Continuous
 62
     7
370
    25
100
AcDbSpline
210
0.0
220
0.0
230
1.0
 70
     8
 71
     3
 72
    23
 73
    19
 74
     0
 42
0.00000001
 43
0.00000001
 40
0.0
 40
0.0
 40
0.0
 40
0.0
 40
0.0759675294536681
 40
0.1471124821939786
 40
0.2138899601130623
 40
0.2764097953675992
 40
0.3373713010409762
 40
0.3962808614181222
 40
0.4538472293455679
 40
0.5138543155786364
 40
0.5728490259309411
 40
0.6306185016342555
 40
0.6885398407766201
 40
0.7468857286166563
 40
0.8054534511346262
 40
0.8669818621753705
 40
0.9322770412905613
 40
1.0
 40
1.0
 40
1.0
 40
1.0
 10
-257.3461911827072
 20
-720.6858670844858
 30
0.0
 10
-257.3694439724767
 20
-720.6855889571277
 30
0.0
 10
-257.4144734165765
 20
-720.6850503585147
 30
0.0
 10
-257.4792475234179
 20
-720.6750942602564
 30
0.0
 10
-257.5391255542006
 20
-720.6615648365207
 30
0.0
 10
-257.593675897059
 20
-720.640905250872
 30
0.0
 10
-257.64338734762
 20
-720.6152810777081
 30
0.0
 10
-257.6873098943253
 20
-720.5830649368487
 30
0.0
 10
-257.7259780627867
 20
-720.5452123213107
 30
0.0
 10
-257.759049397495
 20
-720.5022777068793
 30
0.0
 10
-257.7855276483935
 20
-720.4550395170418
 30
0.0
 10
-257.8072300505785
 20
-720.4060810416969
 30
0.0
 10
-257.8210784118581
 20
-720.3545420690676
 30
0.0
 10
-257.8297785008565
 20
-720.3016969777351
 30
0.0
 10
-257.8313425265805
 20
-720.2469947725996
 30
0.0
 10
-257.8260547623386
 20
-720.1904558537353
 30
0.0
 10
-257.8143523656548
 20
-720.1320044403345
 30
0.0
 10
-257.8020957638037
 20
-720.0932048483392
 30
0.0
 10
-257.7958556122375
 20
-720.0734509771032
 30
0.0
  0
LINE
  5
C5
330
1F
100
AcDbEntity
  8
0
  6
Continuous
 62
     7
370
    25
100
AcDbLine
 10
-257.7958556122
 20
-720.0734509771
 30
0.0
 11
-257.0710233975
 21
-717.9794912456
 31
0.0
  0
SPLINE
  5
C6
330
1F
100
AcDbEntity
  8
0
  6
Continuous
 62
     7
370
    25
100
AcDbSpline
210
0.0
220
0.0
230
1.0
 70
     8
 71
     3
 72
    11
 73
     7
 74
     0
 42
0.00000001
 43
0.00000001
 40
0.0
 40
0.0
 40
0.0
 40
0.0
 40
0.2073285264008573
 40
0.4390773259346349
 40
0.7050060165846049
 40
1.0
 40
1.0
 40
1.0
 40
1.0
 10
-257.0710233974723
 20
-717.9794912455596
 30
0.0
 10
-257.0659047887953
 20
-717.9672026332502
 30
0.0
 10
-257.0550646740774
 20
-717.9411779895314
 30
0.0
 10
-257.027413822003
 20
-717.9050950059765
 30
0.0
 10
-256.9925329061562
 20
-717.8681921311621
 30
0.0
 10
-256.9642521770499
 20
-717.8460183805538
 30
0.0
 10
-256.9493791021704
 20
-717.8343570173716
 30
0.0
  0
SPLINE
  5
C7
330
1F
100
AcDbEntity
  8
0
  6
Continuous
 62
     7
370
    25
100
AcDbSpline
210
0.0
220
0.0
230
1.0
 70
     8
 71
     3
 72
    11
 73
     7
 74
     0
 42
0.00000001
 43
0.00000001
 40
0.0
 40
0.0
 40
0.0
 40
0.0
 40
0.2244162623485871
 40
0.4643437489928425
 40
0.7208523710307871
 40
1.0
 40
1.0
 40
1.0
 40
1.0
 10
-256.9493791021704
 20
-717.8343570173716
 30
0.0
 10
-256.9367389834285
 20
-717.8269010775499
 30
0.0
 10
-256.9105850850308
 20
-717.8114738575579
 30
0.0
 10
-256.8655288432025
 20
-717.7967937766261
 30
0.0
 10
-256.8154476068474
 20
-717.7887025838688
 30
0.0
 10
-256.7805071542278
 20
-717.7872797235242
 30
0.0
 10
-256.7622985652576
 20
-717.7865382254255
 30
0.0
  0
SPLINE
  5
C8
330
1F
100
AcDbEntity
  8
0
  6
Continuous
 62
     7
370
    25
100
AcDbSpline
210
0.0
220
0.0
230
1.0
 70
     8
 71
     3
 72
    11
 73
     7
 74
     0
 42
0.00000001
 43
0.00000001
 40
0.0
 40
0.0
 40
0.0
 40
0.0
 40
0.1796453559698303
 40
0.4031084818039982
 40
0.6776758336331504
 40
1.0
 40
1.0
 40
1.0
 40
1.0
 10
-256.7622985652575
 20
-717.7865382254254
 30
0.0
 10
-256.7552658448001
 20
-717.7871416294203
 30
0.0
 10
-256.7394850345962
 20
-717.7884956152607
 30
0.0
 10
-256.7140136643816
 20
-717.7967527139426
 30
0.0
 10
-256.6850051846054
 20
-717.8106370708208
 30
0.0
 10
-256.6643773098553
 20
-717.8216815424668
 30
0.0
 10
-256.653238162573
 20
-717.8276456079757
 30
0.0
  0
SPLINE
  5
C9
330
1F
100
AcDbEntity
  8
0
  6
Continuous
 62
     7
370
    25
100
AcDbSpline
210
0.0
220
0.0
230
1.0
 70
     8
 71
     3
 72
    11
 73
     7
 74
     0
 42
0.00000001
 43
0.00000001
 40
0.0
 40
0.0
 40
0.0
 40
0.0
 40
0.2160911014057377
 40
0.4406157560086864
 40
0.6969598948934149
 40
1.0
 40
1.0
 40
1.0
 40
1.0
 10
-256.653238162573
 20
-717.8276456079757
 30
0.0
 10
-256.6462603380322
 20
-717.837057910252
 30
0.0
 10
-256.6320323600391
 20
-717.8562498559467
 30
0.0
 10
-256.6258173460224
 20
-717.8940093080886
 30
0.0
 10
-256.6272794013353
 20
-717.9361617127537
 30
0.0
 10
-256.6364987292263
 20
-717.9648101850062
 30
0.0
 10
-256.6414931961301
 20
-717.9803301717342
 30
0.0
  0
LINE
  5
CA
330
1F
100
AcDbEntity
  8
0
  6
Continuous
 62
     7
370
    25
100
AcDbLine
 10
-256.6414931961
 20
-717.9803301717
 30
0.0
 11
-257.3696811156
 21
-720.0835180912
 31
0.0
  0
SPLINE
  5
CB
330
1F
100
AcDbEntity
  8
0
  6
Continuous
 62
     7
370
    25
100
AcDbSpline
210
0.0
220
0.0
230
1.0
 70
     8
 71
     3
 72
    15
 73
    11
 74
     0
 42
0.00000001
 43
0.00000001
 40
0.0
 40
0.0
 40
0.0
 40
0.0
 40
0.1433683807847061
 40
0.2719712767468336
 40
0.38991172378263
 40
0.5094652016217842
 40
0.6279364741500298
 40
0.74127913108267
 40
0.863185064794351
 40
1.0
 40
1.0
 40
1.0
 40
1.0
 10
-257.3696811155932
 20
-720.0835180911972
 30
0.0
 10
-257.3742961875301
 20
-720.0984754098198
 30
0.0
 10
-257.3830510259407
 20
-720.1268495953982
 30
0.0
 10
-257.3847667915832
 20
-720.1697470112925
 30
0.0
 10
-257.3770467876893
 20
-720.2091857527232
 30
0.0
 10
-257.3602586502632
 20
-720.2445313344646
 30
0.0
 10
-257.3353050281469
 20
-720.2742372065616
 30
0.0
 10
-257.3023937639338
 20
-720.2950551289747
 30
0.0
 10
-257.2635276684411
 20
-720.3080850875988
 30
0.0
 10
-257.2352865333318
 20
-720.3093560545703
 30
0.0
 10
-257.2203522565328
 20
-720.3100281583113
 30
0.0
  0
LINE
  5
CC
330
1F
100
AcDbEntity
  8
0
  6
Continuous
 62
     7
370
    25
100
AcDbLine
 10
-257.2203522565
 20
-720.3100281583
 30
0.0
 11
-256.482097223
 21
-720.3100281583
 31
0.0
  0
LINE
  5
CD
330
1F
100
AcDbEntity
  8
0
  6
Continuous
 62
     7
370
    25
100
AcDbLine
 10
-256.482097223
 20
-720.3100281583
 30
0.0
 11
-255.6750502431
 21
-717.9803301717
 31
0.0
  0
SPLINE
  5
CE
330
1F
100
AcDbEntity
  8
0
  6
Continuous
 62
     7
370
    25
100
AcDbSpline
210
0.0
220
0.0
230
1.0
 70
     8
 71
     3
 72
    11
 73
     7
 74
     0
 42
0.00000001
 43
0.00000001
 40
0.0
 40
0.0
 40
0.0
 40
0.0
 40
0.2104646275265536
 40
0.4412965432120351
 40
0.7061731217399747
 40
0.9999999999999999
 40
0.9999999999999999
 40
0.9999999999999999
 40
0.9999999999999999
 10
-255.6750502431099
 20
-717.9803301717342
 30
0.0
 10
-255.66997258416
 20
-717.9677417682008
 30
0.0
 10
-255.659325886097
 20
-717.9413467438726
 30
0.0
 10
-255.631415383364
 20
-717.9051061203896
 30
0.0
 10
-255.5965672840558
 20
-717.8681888201451
 30
0.0
 10
-255.5682816187018
 20
-717.8460172394026
 30
0.0
 10
-255.5534059478079
 20
-717.8343570173716
 30
0.0
  0
SPLINE
  5
CF
330
1F
100
AcDbEntity
  8
0
  6
Continuous
 62
     7
370
    25
100
AcDbSpline
210
0.0
220
0.0
230
1.0
 70
     8
 71
     3
 72
    11
 73
     7
 74
     0
 42
0.00000001
 43
0.00000001
 40
0.0
 40
0.0
 40
0.0
 40
0.0
 40
0.2244162623483946
 40
0.4643437489927105
 40
0.7208523710309998
 40
0.9999999999999999
 40
0.9999999999999999
 40
0.9999999999999999
 40
0.9999999999999999
 10
-255.553405947808
 20
-717.8343570173718
 30
0.0
 10
-255.5407658290662
 20
-717.82690107755
 30
0.0
 10
-255.5146119306685
 20
-717.811473857558
 30
0.0
 10
-255.4695556888402
 20
-717.7967937766261
 30
0.0
 10
-255.4194744524849
 20
-717.7887025838689
 30
0.0
 10
-255.3845339998653
 20
-717.7872797235241
 30
0.0
 10
-255.3663254108951
 20
-717.7865382254254
 30
0.0
  0
SPLINE
  5
D0
330
1F
100
AcDbEntity
  8
0
  6
Continuous
 62
     7
370
    25
100
AcDbSpline
210
0.0
220
0.0
230
1.0
 70
     8
 71
     3
 72
    11
 73
     7
 74
     0
 42
0.00000001
 43
0.00000001
 40
0.0
 40
0.0
 40
0.0
 40
0.0
 40
0.1796453559698303
 40
0.4031084818039982
 40
0.6776758336331504
 40
1.0
 40
1.0
 40
1.0
 40
1.0
 10
-255.3663254108951
 20
-717.7865382254254
 30
0.0
 10
-255.3592926904377
 20
-717.7871416294203
 30
0.0
 10
-255.3435118802338
 20
-717.7884956152607
 30
0.0
 10
-255.3180405100191
 20
-717.7967527139426
 30
0.0
 10
-255.2890320302431
 20
-717.8106370708208
 30
0.0
 10
-255.2684041554929
 20
-717.8216815424668
 30
0.0
 10
-255.2572650082106
 20
-717.8276456079757
 30
0.0
  0
SPLINE
  5
D1
330
1F
100
AcDbEntity
  8
0
  6
Continuous
 62
     7
370
    25
100
AcDbSpline
210
0.0
220
0.0
230
1.0
 70
     8
 71
     3
 72
    11
 73
     7
 74
     0
 42
0.00000001
 43
0.00000001
 40
0.0
 40
0.0
 40
0.0
 40
0.0
 40
0.217187048230322
 40
0.442850422015376
 40
0.7004946586051184
 40
1.0
 40
1.0
 40
1.0
 40
1.0
 10
-255.2572650082107
 20
-717.8276456079758
 30
0.0
 10
-255.2502861347953
 20
-717.8370581664929
 30
0.0
 10
-255.2360560181178
 20
-717.85625063467
 30
0.0
 10
-255.2298583148934
 20
-717.8940058577714
 30
0.0
 10
-255.2312312470128
 20
-717.9359063970322
 30
0.0
 10
-255.2405243658492
 20
-717.9642530269463
 30
0.0
 10
-255.2455200417677
 20
-717.9794912455596
 30
0.0
  0
LINE
  5
D2
330
1F
100
AcDbEntity
  8
0
  6
Continuous
 62
     7
370
    25
100
AcDbLine
 10
-255.2455200418
 20
-717.9794912456
 30
0.0
 11
-256.1154864847
 21
-720.4929140644
 31
0.0
  0
SPLINE
  5
D3
330
1F
100
AcDbEntity
  8
0
  6
Continuous
 62
     7
370
    25
100
AcDbSpline
210
0.0
220
0.0
230
1.0
 70
     8
 71
     3
 72
    15
 73
    11
 74
     0
 42
0.00000001
 43
0.00000001
 40
0.0
 40
0.0
 40
0.0
 40
0.0
 40
0.1404344887854101
 40
0.2709794804566193
 40
0.392480021674166
 40
0.508485449901424
 40
0.6254122623229741
 40
0.7443800080293619
 40
0.8671864059573905
 40
0.9999999999999999
 40
0.9999999999999999
 40
0.9999999999999999
 40
0.9999999999999999
 10
-256.1154864847206
 20
-720.4929140643516
 30
0.0
 10
-256.1212307476422
 20
-720.5081925774739
 30
0.0
 10
-256.1323147583832
 20
-720.5376736799
 30
0.0
 10
-256.1549670074219
 20
-720.5774962380026
 30
0.0
 10
-256.1822234236968
 20
-720.6106579161246
 30
0.0
 10
-256.2130852792753
 20
-720.6380917329184
 30
0.0
 10
-256.2475992626802
 20
-720.6603893621013
 30
0.0
 10
-256.2867272063423
 20
-720.675452232878
 30
0.0
 10
-256.3296290268665
 20
-720.6837024457986
 30
0.0
 10
-256.359298944262
 20
-720.6851269490953
 30
0.0
 10
-256.3747146726401
 20
-720.6858670844858
 30
0.0
  0
LINE
  5
D4
330
1F
100
AcDbEntity
  8
0
  6
Continuous
 62
     7
370
    25
100
AcDbLine
 10
-256.3747146726
 20
-720.6858670845
 30
0.0
 11
-257.3461911827
 21
-720.6858670845
 31
0.0
  0
SPLINE
  5
D5
330
1F
100
AcDbEntity
  8
0
  6
Continuous
 62
     7
370
    25
100
AcDbSpline
210
0.0
220
0.0
230
1.0
 70
     8
 71
     3
 72
    15
 73
    11
 74
     0
 42
0.00000001
 43
0.00000001
 40
0.0
 40
0.0
 40
0.0
 40
0.0
 40
0.1629469740574539
 40
0.3082333063137798
 40
0.4380612978722507
 40
0.5623668881695576
 40
0.6797815188209959
 40
0.7867066020939704
 40
0.8908443374180067
 40
1.0
 40
1.0
 40
1.0
 40
1.0
 10
-259.9040770887475
 20
-721.7731154066335
 30
0.0
 10
-259.9211797809925
 20
-721.7722233124298
 30
0.0
 10
-259.9535315285964
 20
-721.7705358116488
 30
0.0
 10
-259.9988305421147
 20
-721.7604161847261
 30
0.0
 10
-260.0364147362871
 20
-721.7405466030824
 30
0.0
 10
-260.0649571106202
 20
-721.7133667464167
 30
0.0
 10
-260.0853344247869
 20
-721.6824690788421
 30
0.0
 10
-260.0965082164444
 20
-721.6495852766179
 30
0.0
 10
-260.1000070746501
 20
-721.6154479970118
 30
0.0
 10
-260.0935984144547
 20
-721.5937720910259
 30
0.0
 10
-260.0903186994858
 20
-721.5826791650227
 30
0.0
  0
LINE
  5
D6
330
1F
100
AcDbEntity
  8
0
  6
Continuous
 62
     7
370
    25
100
AcDbLine
 10
-260.0903186995
 20
-721.582679165
 30
0.0
 11
-258.837801921
 21
-717.9660684268
 31
0.0
  0
SPLINE
  5
D7
330
1F
100
AcDbEntity
  8
0
  6
Continuous
 62
     7
370
    25
100
AcDbSpline
210
0.0
220
0.0
230
1.0
 70
     8
 71
     3
 72
    11
 73
     7
 74
     0
 42
0.00000001
 43
0.00000001
 40
0.0
 40
0.0
 40
0.0
 40
0.0
 40
0.2067154064725046
 40
0.4403547251024856
 40
0.7025062404159049
 40
1.0
 40
1.0
 40
1.0
 40
1.0
 10
-258.8378019209623
 20
-717.9660684267677
 30
0.0
 10
-258.8327412685306
 20
-717.953734592819
 30
0.0
 10
-258.8219608325272
 20
-717.927460488965
 30
0.0
 10
-258.7932042953507
 20
-717.8922608040026
 30
0.0
 10
-258.7593364947849
 20
-717.8541794264128
 30
0.0
 10
-258.7305962902678
 20
-717.832472872492
 30
0.0
 10
-258.7153186994857
 20
-717.8209341985797
 30
0.0
  0
SPLINE
  5
D8
330
1F
100
AcDbEntity
  8
0
  6
Continuous
 62
     7
370
    25
100
AcDbSpline
210
0.0
220
0.0
230
1.0
 70
     8
 71
     3
 72
    11
 73
     7
 74
     0
 42
0.00000001
 43
0.00000001
 40
0.0
 40
0.0
 40
0.0
 40
0.0
 40
0.225329919240557
 40
0.4621629532685231
 40
0.7197158885301969
 40
0.9999999999999999
 40
0.9999999999999999
 40
0.9999999999999999
 40
0.9999999999999999
 10
-258.7153186994858
 20
-717.8209341985798
 30
0.0
 10
-258.7026714907173
 20
-717.8135001672405
 30
0.0
 10
-258.6767314319146
 20
-717.7982525965222
 30
0.0
 10
-258.6320840067374
 20
-717.7832140025107
 30
0.0
 10
-258.582215153163
 20
-717.775312485509
 30
0.0
 10
-258.5472819169941
 20
-717.7738681145843
 30
0.0
 10
-258.5290770887476
 20
-717.7731154066335
 30
0.0
  0
SPLINE
  5
D9
330
1F
100
AcDbEntity
  8
0
  6
Continuous
 62
     7
370
    25
100
AcDbSpline
210
0.0
220
0.0
230
1.0
 70
     8
 71
     3
 72
    11
 73
     7
 74
     0
 42
0.00000001
 43
0.00000001
 40
0.0
 40
0.0
 40
0.0
 40
0.0
 40
0.179645355970276
 40
0.4031084818036917
 40
0.6776758336336307
 40
1.0
 40
1.0
 40
1.0
 40
1.0
 10
-258.5290770887476
 20
-717.7731154066335
 30
0.0
 10
-258.52204436829
 20
-717.7737188106283
 30
0.0
 10
-258.5062635580861
 20
-717.7750727964685
 30
0.0
 10
-258.4807921878715
 20
-717.7833298951506
 30
0.0
 10
-258.4517837080955
 20
-717.797214252029
 30
0.0
 10
-258.4311558333454
 20
-717.8082587236751
 30
0.0
 10
-258.420016686063
 20
-717.8142227891839
 30
0.0
  0
SPLINE
  5
DA
330
1F
100
AcDbEntity
  8
0
  6
Continuous
 62
     7
370
    25
100
AcDbSpline
210
0.0
220
0.0
230
1.0
 70
     8
 71
     3
 72
    11
 73
     7
 74
     0
 42
0.00000001
 43
0.00000001
 40
0.0
 40
0.0
 40
0.0
 40
0.0
 40
0.2150097518954742
 40
0.4424375850153808
 40
0.7010379781636206
 40
1.0
 40
1.0
 40
1.0
 40
1.0
 10
-258.420016686063
 20
-717.8142227891838
 30
0.0
 10
-258.4134904509702
 20
-717.8236922371095
 30
0.0
 10
-258.4000610522185
 20
-717.8431780494259
 30
0.0
 10
-258.3919409559551
 20
-717.8804542843002
 30
0.0
 10
-258.3954467801463
 20
-717.922366789359
 30
0.0
 10
-258.4037952917796
 20
-717.9508147698776
 30
0.0
 10
-258.40827171962
 20
-717.9660684267677
 30
0.0
  0
LINE
  5
DB
330
1F
100
AcDbEntity
  8
0
  6
Continuous
 62
     7
370
    25
100
AcDbLine
 10
-258.4082717196
 20
-717.9660684268
 30
0.0
 11
-259.5299160149
 21
-721.2043234603
 31
0.0
  0
LINE
  5
DC
330
1F
100
AcDbEntity
  8
0
  6
Continuous
 62
     7
370
    25
100
AcDbLine
 10
-259.5299160149
 20
-721.2043234603
 30
0.0
 11
-258.8403186995
 21
-720.621269769
 31
0.0
  0
SPLINE
  5
DD
330
1F
100
AcDbEntity
  8
0
  6
Continuous
 62
     7
370
    25
100
AcDbSpline
210
0.0
220
0.0
230
1.0
 70
     8
 71
     3
 72
    11
 73
     7
 74
     0
 42
0.00000001
 43
0.00000001
 40
0.0
 40
0.0
 40
0.0
 40
0.0
 40
0.2333459770587977
 40
0.4744284644408518
 40
0.7290281793934195
 40
1.0
 40
1.0
 40
1.0
 40
1.0
 10
-258.8403186994858
 20
-720.6212697690495
 30
0.0
 10
-258.8271625686799
 20
-720.6126647157565
 30
0.0
 10
-258.8004141198103
 20
-720.5951693114145
 30
0.0
 10
-258.75422919446
 20
-720.5777261520935
 30
0.0
 10
-258.7034552221211
 20
-720.5677119163686
 30
0.0
 10
-258.6681070897803
 20
-720.5665168094239
 30
0.0
 10
-258.6498824578751
 20
-720.5659006415328
 30
0.0
  0
SPLINE
  5
DE
330
1F
100
AcDbEntity
  8
0
  6
Continuous
 62
     7
370
    25
100
AcDbSpline
210
0.0
220
0.0
230
1.0
 70
     8
 71
     3
 72
    15
 73
    11
 74
     0
 42
0.00000001
 43
0.00000001
 40
0.0
 40
0.0
 40
0.0
 40
0.0
 40
0.1364334227001235
 40
0.2607105170385595
 40
0.3762879088332661
 40
0.491373238104494
 40
0.609046763766026
 40
0.7295791723770528
 40
0.8566696577795704
 40
1.0
 40
1.0
 40
1.0
 40
1.0
 10
-258.6498824578751
 20
-720.5659006415328
 30
0.0
 10
-258.6369247223251
 20
-720.56639468518
 30
0.0
 10
-258.6121637959479
 20
-720.5673387527859
 30
0.0
 10
-258.5779153383754
 20
-720.5785756811782
 30
0.0
 10
-258.5489794080443
 20
-720.5964892150887
 30
0.0
 10
-258.5272641041456
 20
-720.6216830877968
 30
0.0
 10
-258.5102857600055
 20
-720.651040029864
 30
0.0
 10
-258.5045156947834
 20
-720.6855963351169
 30
0.0
 10
-258.5047898662248
 20
-720.7229275896055
 30
0.0
 10
-258.5124389664319
 20
-720.7475048841296
 30
0.0
 10
-258.5164931961301
 20
-720.760531514016
 30
0.0
  0
SPLINE
  5
DF
330
1F
100
AcDbEntity
  8
0
  6
Continuous
 62
     7
370
    25
100
AcDbSpline
210
0.0
220
0.0
230
1.0
 70
     8
 71
     3
 72
    11
 73
     7
 74
     0
 42
0.00000001
 43
0.00000001
 40
0.0
 40
0.0
 40
0.0
 40
0.0
 40
0.1510180190474056
 40
0.363004191585238
 40
0.6470336411965837
 40
1.0
 40
1.0
 40
1.0
 40
1.0
 10
-258.5164931961301
 20
-720.760531514016
 30
0.0
 10
-258.5198912860677
 20
-720.7679436724369
 30
0.0
 10
-258.5280593238854
 20
-720.7857603845916
 30
0.0
 10
-258.5499486573493
 20
-720.8131469276577
 30
0.0
 10
-258.5788766063383
 20
-720.848430452025
 30
0.0
 10
-258.6024334046164
 20
-720.8733829266823
 30
0.0
 10
-258.6154864847207
 20
-720.8872093663649
 30
0.0
  0
LINE
  5
E0
330
1F
100
AcDbEntity
  8
0
  6
Continuous
 62
     7
370
    25
100
AcDbLine
 10
-258.6154864847
 20
-720.8872093664
 30
0.0
 11
-259.7522314512
 21
-721.7185852053
 31
0.0
  0
SPLINE
  5
E1
330
1F
100
AcDbEntity
  8
0
  6
Continuous
 62
     7
370
    25
100
AcDbSpline
210
0.0
220
0.0
230
1.0
 70
     8
 71
     3
 72
    11
 73
     7
 74
     0
 42
0.00000001
 43
0.00000001
 40
0.0
 40
0.0
 40
0.0
 40
0.0
 40
0.2712316201346298
 40
0.5253645741302838
 40
0.7637030866282418
 40
1.0
 40
1.0
 40
1.0
 40
1.0
 10
-259.7522314511637
 20
-721.7185852052912
 30
0.0
 10
-259.7646403558296
 20
-721.7267095314251
 30
0.0
 10
-259.7886758975267
 20
-721.7424460194395
 30
0.0
 10
-259.8264785612143
 20
-721.7605055566503
 30
0.0
 10
-259.8651884659344
 20
-721.7711456696854
 30
0.0
 10
-259.8911514402311
 20
-721.7724607131623
 30
0.0
 10
-259.9040770887475
 20
-721.7731154066335
 30
0.0
  0
SPLINE
  5
E2
330
1F
100
AcDbEntity
  8
0
  6
Continuous
 62
     7
370
    25
100
AcDbSpline
210
0.0
220
0.0
230
1.0
 70
     8
 71
     3
 72
    11
 73
     7
 74
     0
 42
0.00000001
 43
0.00000001
 40
0.0
 40
0.0
 40
0.0
 40
0.0
 40
0.1897416116683003
 40
0.4188521282456395
 40
0.6855257548157436
 40
1.0
 40
1.0
 40
1.0
 40
1.0
 10
-251.021526753177
 20
-720.48704158113
 30
0.0
 10
-251.0168363706692
 20
-720.4767776168632
 30
0.0
 10
-251.0064824125762
 20
-720.4541200498717
 30
0.0
 10
-250.9813253324695
 20
-720.4217468761251
 30
0.0
 10
-250.9469487671843
 20
-720.3880855464448
 30
0.0
 10
-250.9202190740385
 20
-720.3662870042992
 30
0.0
 10
-250.9057549410965
 20
-720.3544912455596
 30
0.0
  0
LINE
  5
E3
330
1F
100
AcDbEntity
  8
0
  6
Continuous
 62
     7
370
    25
100
AcDbLine
 10
-250.9057549411
 20
-720.3544912456
 30
0.0
 11
-249.73713078
 21
-719.4400617154
 31
0.0
  0
LINE
  5
E4
330
1F
100
AcDbEntity
  8
0
  6
Continuous
 62
     7
370
    25
100
AcDbLine
 10
-249.73713078
 20
-719.4400617154
 30
0.0
 11
-250.1498824579
 21
-718.058350306
 31
0.0
  0
LINE
  5
E5
330
1F
100
AcDbEntity
  8
0
  6
Continuous
 62
     7
370
    25
100
AcDbLine
 10
-250.1498824579
 20
-718.058350306
 30
0.0
 11
-250.1448489008
 21
-717.9736187623
 31
0.0
  0
SPLINE
  5
E6
330
1F
100
AcDbEntity
  8
0
  6
Continuous
 62
     7
370
    25
100
AcDbSpline
210
0.0
220
0.0
230
1.0
 70
     8
 71
     3
 72
    11
 73
     7
 74
     0
 42
0.00000001
 43
0.00000001
 40
0.0
 40
0.0
 40
0.0
 40
0.0
 40
0.1746501631150862
 40
0.3944447242770147
 40
0.6674759962029118
 40
1.0
 40
1.0
 40
1.0
 40
1.0
 10
-250.144848900828
 20
-717.9736187623381
 30
0.0
 10
-250.1401408786699
 20
-717.9639138908126
 30
0.0
 10
-250.1295078825767
 20
-717.9419955867885
 30
0.0
 10
-250.1030853019411
 20
-717.910007883206
 30
0.0
 10
-250.0652579641406
 20
-717.8759853440722
 30
0.0
 10
-250.0359451987327
 20
-717.8529039903643
 30
0.0
 10
-250.019848900828
 20
-717.8402295005931
 30
0.0
  0
SPLINE
  5
E7
330
1F
100
AcDbEntity
  8
0
  6
Continuous
 62
     7
370
    25
100
AcDbSpline
210
0.0
220
0.0
230
1.0
 70
     8
 71
     3
 72
    11
 73
     7
 74
     0
 42
0.00000001
 43
0.00000001
 40
0.0
 40
0.0
 40
0.0
 40
0.0
 40
0.2394117473148637
 40
0.4802338853127792
 40
0.7320213123098407
 40
1.0
 40
1.0
 40
1.0
 40
1.0
 10
-250.019848900828
 20
-717.8402295005931
 30
0.0
 10
-250.005820131117
 20
-717.8319219259562
 30
0.0
 10
-249.9776799472704
 20
-717.8152578362024
 30
0.0
 10
-249.9304991815301
 20
-717.7986442996868
 30
0.0
 10
-249.8796476259526
 20
-717.7882813767188
 30
0.0
 10
-249.8442876781747
 20
-717.7871312187332
 30
0.0
 10
-249.8260569545193
 20
-717.7865382254254
 30
0.0
  0
SPLINE
  5
E8
330
1F
100
AcDbEntity
  8
0
  6
Continuous
 62
     7
370
    25
100
AcDbSpline
210
0.0
220
0.0
230
1.0
 70
     8
 71
     3
 72
    11
 73
     7
 74
     0
 42
0.00000001
 43
0.00000001
 40
0.0
 40
0.0
 40
0.0
 40
0.0
 40
0.2767418655759245
 40
0.5007173001754927
 40
0.7270817255138962
 40
1.0
 40
1.0
 40
1.0
 40
1.0
 10
-249.8260569545193
 20
-717.7865382254254
 30
0.0
 10
-249.8104974369878
 20
-717.7871960769857
 30
0.0
 10
-249.782345138476
 20
-717.7883863474074
 30
0.0
 10
-249.7440213580379
 20
-717.8046608588742
 30
0.0
 10
-249.7148122053613
 20
-717.834257889382
 30
0.0
 10
-249.7042911842496
 20
-717.8603583958277
 30
0.0
 10
-249.6985401759958
 20
-717.8746254737475
 30
0.0
  0
LINE
  5
E9
330
1F
100
AcDbEntity
  8
0
  6
Continuous
 62
     7
370
    25
100
AcDbLine
 10
-249.698540176
 20
-717.8746254737
 30
0.0
 11
-249.3579361492
 21
-719.1648939301
 31
0.0
  0
LINE
  5
EA
330
1F
100
AcDbEntity
  8
0
  6
Continuous
 62
     7
370
    25
100
AcDbLine
 10
-249.3579361492
 20
-719.1648939301
 30
0.0
 11
-249.059278431
 21
-718.8779811784
 31
0.0
  0
LINE
  5
EB
330
1F
100
AcDbEntity
  8
0
  6
Continuous
 62
     7
370
    25
100
AcDbLine
 10
-249.059278431
 20
-718.8779811784
 30
0.0
 11
-248.7488757465
 21
-717.9794912456
 31
0.0
  0
SPLINE
  5
EC
330
1F
100
AcDbEntity
  8
0
  6
Continuous
 62
     7
370
    25
100
AcDbSpline
210
0.0
220
0.0
230
1.0
 70
     8
 71
     3
 72
    11
 73
     7
 74
     0
 42
0.00000001
 43
0.00000001
 40
0.0
 40
0.0
 40
0.0
 40
0.0
 40
0.2067154064720626
 40
0.4403547251025292
 40
0.7025062404158757
 40
1.0
 40
1.0
 40
1.0
 40
1.0
 10
-248.7488757464656
 20
-717.9794912455596
 30
0.0
 10
-248.7438150940339
 20
-717.9671574116111
 30
0.0
 10
-248.7330346580304
 20
-717.9408833077568
 30
0.0
 10
-248.7042781208541
 20
-717.9056836227948
 30
0.0
 10
-248.6704103202881
 20
-717.8676022452042
 30
0.0
 10
-248.6416701157711
 20
-717.8458956912837
 30
0.0
 10
-248.6263925249891
 20
-717.8343570173716
 30
0.0
  0
SPLINE
  5
ED
330
1F
100
AcDbEntity
  8
0
  6
Continuous
 62
     7
370
    25
100
AcDbSpline
210
0.0
220
0.0
230
1.0
 70
     8
 71
     3
 72
    11
 73
     7
 74
     0
 42
0.00000001
 43
0.00000001
 40
0.0
 40
0.0
 40
0.0
 40
0.0
 40
0.2253299192402863
 40
0.46216295326844
 40
0.7197158885301603
 40
1.0
 40
1.0
 40
1.0
 40
1.0
 10
-248.6263925249891
 20
-717.8343570173718
 30
0.0
 10
-248.6137453162205
 20
-717.8269229860323
 30
0.0
 10
-248.5878052574178
 20
-717.8116754153143
 30
0.0
 10
-248.5431578322409
 20
-717.7966368213025
 30
0.0
 10
-248.4932889786661
 20
-717.788735304301
 30
0.0
 10
-248.4583557424973
 20
-717.7872909333761
 30
0.0
 10
-248.4401509142508
 20
-717.7865382254254
 30
0.0
  0
SPLINE
  5
EE
330
1F
100
AcDbEntity
  8
0
  6
Continuous
 62
     7
370
    25
100
AcDbSpline
210
0.0
220
0.0
230
1.0
 70
     8
 71
     3
 72
    11
 73
     7
 74
     0
 42
0.00000001
 43
0.00000001
 40
0.0
 40
0.0
 40
0.0
 40
0.0
 40
0.1796453559700236
 40
0.4031084818039144
 40
0.6776758336334332
 40
1.0
 40
1.0
 40
1.0
 40
1.0
 10
-248.4401509142509
 20
-717.7865382254255
 30
0.0
 10
-248.4331181937934
 20
-717.7871416294204
 30
0.0
 10
-248.4173373835895
 20
-717.7884956152608
 30
0.0
 10
-248.3918660133747
 20
-717.7967527139424
 30
0.0
 10
-248.3628575335989
 20
-717.8106370708211
 30
0.0
 10
-248.3422296588486
 20
-717.8216815424669
 30
0.0
 10
-248.3310905115663
 20
-717.8276456079757
 30
0.0
  0
SPLINE
  5
EF
330
1F
100
AcDbEntity
  8
0
  6
Continuous
 62
     7
370
    25
100
AcDbSpline
210
0.0
220
0.0
230
1.0
 70
     8
 71
     3
 72
    11
 73
     7
 74
     0
 42
0.00000001
 43
0.00000001
 40
0.0
 40
0.0
 40
0.0
 40
0.0
 40
0.217187048230322
 40
0.442850422015376
 40
0.7004946586051184
 40
1.0
 40
1.0
 40
1.0
 40
1.0
 10
-248.3310905115663
 20
-717.8276456079758
 30
0.0
 10
-248.324111638151
 20
-717.8370581664929
 30
0.0
 10
-248.3098815214734
 20
-717.85625063467
 30
0.0
 10
-248.3036838182491
 20
-717.8940058577714
 30
0.0
 10
-248.3050567503684
 20
-717.9359063970322
 30
0.0
 10
-248.3143498692049
 20
-717.9642530269463
 30
0.0
 10
-248.3193455451233
 20
-717.9794912455596
 30
0.0
  0
LINE
  5
F0
330
1F
100
AcDbEntity
  8
0
  6
Continuous
 62
     7
370
    25
100
AcDbLine
 10
-248.3193455451
 20
-717.9794912456
 30
0.0
 11
-249.1893119881
 21
-720.4929140644
 31
0.0
  0
SPLINE
  5
F1
330
1F
100
AcDbEntity
  8
0
  6
Continuous
 62
     7
370
    25
100
AcDbSpline
210
0.0
220
0.0
230
1.0
 70
     8
 71
     3
 72
    15
 73
    11
 74
     0
 42
0.00000001
 43
0.00000001
 40
0.0
 40
0.0
 40
0.0
 40
0.0
 40
0.103956511193521
 40
0.2189359925046067
 40
0.3481401832571313
 40
0.4895793191791448
 40
0.6324223518993651
 40
0.7619880210906176
 40
0.8844524481545922
 40
1.0
 40
1.0
 40
1.0
 40
1.0
 10
-249.1893119880763
 20
-720.4929140643516
 30
0.0
 10
-249.1936583879129
 20
-720.5037593708337
 30
0.0
 10
-249.2028120556446
 20
-720.5265999597624
 30
0.0
 10
-249.2259902181934
 20
-720.5582880133177
 30
0.0
 10
-249.2541043193027
 20
-720.5911027482036
 30
0.0
 10
-249.2889220871571
 20
-720.6217902157017
 30
0.0
 10
-249.3257717816588
 20
-720.6500565184921
 30
0.0
 10
-249.3650481031607
 20
-720.6708581694278
 30
0.0
 10
-249.4047604069933
 20
-720.6830215250523
 30
0.0
 10
-249.4314086408611
 20
-720.6849371210778
 30
0.0
 10
-249.4443455451234
 20
-720.685867084486
 30
0.0
  0
SPLINE
  5
F2
330
1F
100
AcDbEntity
  8
0
  6
Continuous
 62
     7
370
    25
100
AcDbSpline
210
0.0
220
0.0
230
1.0
 70
     8
 71
     3
 72
    15
 73
    11
 74
     0
 42
0.00000001
 43
0.00000001
 40
0.0
 40
0.0
 40
0.0
 40
0.0
 40
0.1546629059237594
 40
0.2899992926489123
 40
0.4183335868362967
 40
0.5408858973362836
 40
0.6588073110175107
 40
0.7700798314279996
 40
0.8810886725097614
 40
1.0
 40
1.0
 40
1.0
 40
1.0
 10
-249.4443455451233
 20
-720.6858670844858
 30
0.0
 10
-249.4604020977838
 20
-720.6855367271248
 30
0.0
 10
-249.4905087926381
 20
-720.6849172935226
 30
0.0
 10
-249.5321592355445
 20
-720.672031204416
 30
0.0
 10
-249.5682575220978
 20
-720.6543012713557
 30
0.0
 10
-249.5963782665063
 20
-720.627674971248
 30
0.0
 10
-249.6154311245733
 20
-720.5964384125057
 30
0.0
 10
-249.6274455434202
 20
-720.5629472115866
 30
0.0
 10
-249.6278491667666
 20
-720.5270535073356
 30
0.0
 10
-249.6219125303861
 20
-720.5039987298168
 30
0.0
 10
-249.6188421894186
 20
-720.492075138177
 30
0.0
  0
LINE
  5
F3
330
1F
100
AcDbEntity
  8
0
  6
Continuous
 62
     7
370
    25
100
AcDbLine
 10
-249.6188421894
 20
-720.4920751382
 30
0.0
 11
-249.2237079612
 21
-719.3528133932
 31
0.0
  0
LINE
  5
F4
330
1F
100
AcDbEntity
  8
0
  6
Continuous
 62
     7
370
    25
100
AcDbLine
 10
-249.2237079612
 20
-719.3528133932
 30
0.0
 11
-250.6725334646
 21
-720.6170751382
 31
0.0
  0
SPLINE
  5
F5
330
1F
100
AcDbEntity
  8
0
  6
Continuous
 62
     7
370
    25
100
AcDbSpline
210
0.0
220
0.0
230
1.0
 70
     8
 71
     3
 72
    11
 73
     7
 74
     0
 42
0.00000001
 43
0.00000001
 40
0.0
 40
0.0
 40
0.0
 40
0.0
 40
0.2876769108148465
 40
0.5460261532086043
 40
0.7804872477036378
 40
1.0
 40
1.0
 40
1.0
 40
1.0
 10
-250.6725334645864
 20
-720.617075138177
 30
0.0
 10
-250.6867546373024
 20
-720.6276796697572
 30
0.0
 10
-250.7137471832467
 20
-720.6478076375138
 30
0.0
 10
-250.7572770814372
 20
-720.6682760871926
 30
0.0
 10
-250.7987591673173
 20
-720.6835228773809
 30
0.0
 10
-250.8267729996859
 20
-720.6851030256993
 30
0.0
 10
-250.8403186994857
 20
-720.6858670844858
 30
0.0
  0
SPLINE
  5
F6
330
1F
100
AcDbEntity
  8
0
  6
Continuous
 62
     7
370
    25
100
AcDbSpline
210
0.0
220
0.0
230
1.0
 70
     8
 71
     3
 72
    15
 73
    11
 74
     0
 42
0.00000001
 43
0.00000001
 40
0.0
 40
0.0
 40
0.0
 40
0.0
 40
0.1576740099308336
 40
0.2992339061330824
 40
0.4293893182518058
 40
0.5574853966056806
 40
0.6803543014922954
 40
0.789824904176325
 40
0.8939846405835545
 40
1.0
 40
1.0
 40
1.0
 40
1.0
 10
-250.8403186994857
 20
-720.6858670844858
 30
0.0
 10
-250.8569070526505
 20
-720.6851583809018
 30
0.0
 10
-250.8883884471807
 20
-720.683813402476
 30
0.0
 10
-250.9321758241778
 20
-720.6711928221322
 30
0.0
 10
-250.968944941195
 20
-720.6498513053779
 30
0.0
 10
-250.99644871128
 20
-720.6200604910613
 30
0.0
 10
-251.0152606835039
 20
-720.5869310523312
 30
0.0
 10
-251.026895642579
 20
-720.5533936951658
 30
0.0
 10
-251.0302103552028
 20
-720.5193333493131
 30
0.0
 10
-251.0244382743014
 20
-720.4978686739576
 30
0.0
 10
-251.021526753177
 20
-720.48704158113
 30
0.0
  0
SPLINE
  5
F7
330
1F
100
AcDbEntity
  8
0
  6
Continuous
 62
     7
370
    25
100
AcDbSpline
210
0.0
220
0.0
230
1.0
 70
     8
 71
     3
 72
    15
 73
    11
 74
     0
 42
0.00000001
 43
0.00000001
 40
0.0
 40
0.0
 40
0.0
 40
0.0
 40
0.1629469740573839
 40
0.3082333063137258
 40
0.4380612978722109
 40
0.5623668881695314
 40
0.6797815188209825
 40
0.78670660209394
 40
0.8908443374179945
 40
1.0
 40
1.0
 40
1.0
 40
1.0
 10
-247.2329361491501
 20
-721.7731154066335
 30
0.0
 10
-247.250038841395
 20
-721.7722233124297
 30
0.0
 10
-247.2823905889988
 20
-721.7705358116484
 30
0.0
 10
-247.3276896025174
 20
-721.7604161847264
 30
0.0
 10
-247.3652737966895
 20
-721.740546603082
 30
0.0
 10
-247.3938161710228
 20
-721.7133667464169
 30
0.0
 10
-247.4141934851895
 20
-721.6824690788418
 30
0.0
 10
-247.425367276847
 20
-721.649585276618
 30
0.0
 10
-247.4288661350527
 20
-721.6154479970114
 30
0.0
 10
-247.4224574748573
 20
-721.5937720910259
 30
0.0
 10
-247.4191777598884
 20
-721.5826791650227
 30
0.0
  0
LINE
  5
F8
330
1F
100
AcDbEntity
  8
0
  6
Continuous
 62
     7
370
    25
100
AcDbLine
 10
-247.4191777599
 20
-721.582679165
 30
0.0
 11
-246.1666609814
 21
-717.9660684268
 31
0.0
  0
SPLINE
  5
F9
330
1F
100
AcDbEntity
  8
0
  6
Continuous
 62
     7
370
    25
100
AcDbSpline
210
0.0
220
0.0
230
1.0
 70
     8
 71
     3
 72
    11
 73
     7
 74
     0
 42
0.00000001
 43
0.00000001
 40
0.0
 40
0.0
 40
0.0
 40
0.0
 40
0.2067154064725757
 40
0.4403547251026543
 40
0.7025062404158902
 40
1.0
 40
1.0
 40
1.0
 40
1.0
 10
-246.1666609813649
 20
-717.9660684267678
 30
0.0
 10
-246.1616003289332
 20
-717.9537345928192
 30
0.0
 10
-246.1508198929298
 20
-717.9274604889648
 30
0.0
 10
-246.1220633557533
 20
-717.8922608040028
 30
0.0
 10
-246.0881955551876
 20
-717.8541794264125
 30
0.0
 10
-246.0594553506705
 20
-717.832472872492
 30
0.0
 10
-246.0441777598884
 20
-717.8209341985797
 30
0.0
  0
SPLINE
  5
FA
330
1F
100
AcDbEntity
  8
0
  6
Continuous
 62
     7
370
    25
100
AcDbSpline
210
0.0
220
0.0
230
1.0
 70
     8
 71
     3
 72
    11
 73
     7
 74
     0
 42
0.00000001
 43
0.00000001
 40
0.0
 40
0.0
 40
0.0
 40
0.0
 40
0.225329919240621
 40
0.4621629532683884
 40
0.7197158885302729
 40
1.0
 40
1.0
 40
1.0
 40
1.0
 10
-246.0441777598884
 20
-717.8209341985797
 30
0.0
 10
-246.0315305511198
 20
-717.8135001672405
 30
0.0
 10
-246.0055904923171
 20
-717.7982525965223
 30
0.0
 10
-245.96094306714
 20
-717.7832140025107
 30
0.0
 10
-245.9110742135655
 20
-717.775312485509
 30
0.0
 10
-245.8761409773966
 20
-717.773868114584
 30
0.0
 10
-245.8579361491501
 20
-717.7731154066335
 30
0.0
  0
SPLINE
  5
FB
330
1F
100
AcDbEntity
  8
0
  6
Continuous
 62
     7
370
    25
100
AcDbSpline
210
0.0
220
0.0
230
1.0
 70
     8
 71
     3
 72
    11
 73
     7
 74
     0
 42
0.00000001
 43
0.00000001
 40
0.0
 40
0.0
 40
0.0
 40
0.0
 40
0.1796453559700816
 40
0.4031084818037733
 40
0.6776758336335589
 40
1.0
 40
1.0
 40
1.0
 40
1.0
 10
-245.8579361491501
 20
-717.7731154066335
 30
0.0
 10
-245.8509034286926
 20
-717.7737188106285
 30
0.0
 10
-245.8351226184888
 20
-717.7750727964689
 30
0.0
 10
-245.809651248274
 20
-717.7833298951504
 30
0.0
 10
-245.7806427684981
 20
-717.7972142520291
 30
0.0
 10
-245.7600148937479
 20
-717.808258723675
 30
0.0
 10
-245.7488757464655
 20
-717.8142227891838
 30
0.0
  0
SPLINE
  5
FC
330
1F
100
AcDbEntity
  8
0
  6
Continuous
 62
     7
370
    25
100
AcDbSpline
210
0.0
220
0.0
230
1.0
 70
     8
 71
     3
 72
    11
 73
     7
 74
     0
 42
0.00000001
 43
0.00000001
 40
0.0
 40
0.0
 40
0.0
 40
0.0
 40
0.2150097518953898
 40
0.4424375850153021
 40
0.7010379781635271
 40
0.9999999999999999
 40
0.9999999999999999
 40
0.9999999999999999
 40
0.9999999999999999
 10
-245.7488757464656
 20
-717.8142227891839
 30
0.0
 10
-245.7423495113728
 20
-717.8236922371095
 30
0.0
 10
-245.7289201126211
 20
-717.843178049426
 30
0.0
 10
-245.7208000163577
 20
-717.8804542843
 30
0.0
 10
-245.7243058405488
 20
-717.9223667893592
 30
0.0
 10
-245.7326543521822
 20
-717.9508147698775
 30
0.0
 10
-245.7371307800226
 20
-717.9660684267678
 30
0.0
  0
LINE
  5
FD
330
1F
100
AcDbEntity
  8
0
  6
Continuous
 62
     7
370
    25
100
AcDbLine
 10
-245.73713078
 20
-717.9660684268
 30
0.0
 11
-246.8587750753
 21
-721.2043234603
 31
0.0
  0
LINE
  5
FE
330
1F
100
AcDbEntity
  8
0
  6
Continuous
 62
     7
370
    25
100
AcDbLine
 10
-246.8587750753
 20
-721.2043234603
 30
0.0
 11
-246.1691777599
 21
-720.621269769
 31
0.0
  0
SPLINE
  5
FF
330
1F
100
AcDbEntity
  8
0
  6
Continuous
 62
     7
370
    25
100
AcDbSpline
210
0.0
220
0.0
230
1.0
 70
     8
 71
     3
 72
    11
 73
     7
 74
     0
 42
0.00000001
 43
0.00000001
 40
0.0
 40
0.0
 40
0.0
 40
0.0
 40
0.233345977058555
 40
0.4744284644407302
 40
0.7290281793932901
 40
1.0
 40
1.0
 40
1.0
 40
1.0
 10
-246.1691777598884
 20
-720.6212697690495
 30
0.0
 10
-246.1560216290824
 20
-720.6126647157565
 30
0.0
 10
-246.1292731802129
 20
-720.5951693114145
 30
0.0
 10
-246.0830882548626
 20
-720.5777261520935
 30
0.0
 10
-246.0323142825237
 20
-720.5677119163686
 30
0.0
 10
-245.9969661501829
 20
-720.5665168094238
 30
0.0
 10
-245.9787415182776
 20
-720.5659006415328
 30
0.0
  0
SPLINE
  5
100
330
1F
100
AcDbEntity
  8
0
  6
Continuous
 62
     7
370
    25
100
AcDbSpline
210
0.0
220
0.0
230
1.0
 70
     8
 71
     3
 72
    15
 73
    11
 74
     0
 42
0.00000001
 43
0.00000001
 40
0.0
 40
0.0
 40
0.0
 40
0.0
 40
0.1364334227001358
 40
0.2607105170384901
 40
0.3762879088332073
 40
0.4913732381044456
 40
0.6090467637659882
 40
0.7295791723770261
 40
0.8566696577795574
 40
1.0
 40
1.0
 40
1.0
 40
1.0
 10
-245.9787415182776
 20
-720.5659006415328
 30
0.0
 10
-245.9657837827276
 20
-720.5663946851801
 30
0.0
 10
-245.9410228563504
 20
-720.5673387527856
 30
0.0
 10
-245.9067743987779
 20
-720.5785756811782
 30
0.0
 10
-245.8778384684467
 20
-720.5964892150881
 30
0.0
 10
-245.8561231645483
 20
-720.6216830877972
 30
0.0
 10
-245.839144820408
 20
-720.6510400298637
 30
0.0
 10
-245.833374755186
 20
-720.685596335117
 30
0.0
 10
-245.8336489266273
 20
-720.7229275896054
 30
0.0
 10
-245.8412980268344
 20
-720.7475048841295
 30
0.0
 10
-245.8453522565327
 20
-720.760531514016
 30
0.0
  0
SPLINE
  5
101
330
1F
100
AcDbEntity
  8
0
  6
Continuous
 62
     7
370
    25
100
AcDbSpline
210
0.0
220
0.0
230
1.0
 70
     8
 71
     3
 72
    11
 73
     7
 74
     0
 42
0.00000001
 43
0.00000001
 40
0.0
 40
0.0
 40
0.0
 40
0.0
 40
0.1510180190472783
 40
0.363004191585249
 40
0.6470336411967545
 40
0.9999999999999999
 40
0.9999999999999999
 40
0.9999999999999999
 40
0.9999999999999999
 10
-245.8453522565327
 20
-720.760531514016
 30
0.0
 10
-245.8487503464703
 20
-720.7679436724369
 30
0.0
 10
-245.856918384288
 20
-720.7857603845916
 30
0.0
 10
-245.878807717752
 20
-720.8131469276583
 30
0.0
 10
-245.9077356667408
 20
-720.8484304520244
 30
0.0
 10
-245.931292465019
 20
-720.8733829266824
 30
0.0
 10
-245.9443455451233
 20
-720.8872093663649
 30
0.0
  0
LINE
  5
102
330
1F
100
AcDbEntity
  8
0
  6
Continuous
 62
     7
370
    25
100
AcDbLine
 10
-245.9443455451
 20
-720.8872093664
 30
0.0
 11
-247.0810905116
 21
-721.7185852053
 31
0.0
  0
SPLINE
  5
103
330
1F
100
AcDbEntity
  8
0
  6
Continuous
 62
     7
370
    25
100
AcDbSpline
210
0.0
220
0.0
230
1.0
 70
     8
 71
     3
 72
    11
 73
     7
 74
     0
 42
0.00000001
 43
0.00000001
 40
0.0
 40
0.0
 40
0.0
 40
0.0
 40
0.2712316201348379
 40
0.5253645741304176
 40
0.7637030866281423
 40
1.0
 40
1.0
 40
1.0
 40
1.0
 10
-247.0810905115662
 20
-721.7185852052912
 30
0.0
 10
-247.0934994162322
 20
-721.726709531425
 30
0.0
 10
-247.1175349579293
 20
-721.7424460194396
 30
0.0
 10
-247.1553376216168
 20
-721.7605055566504
 30
0.0
 10
-247.1940475263371
 20
-721.7711456696856
 30
0.0
 10
-247.2200105006336
 20
-721.7724607131622
 30
0.0
 10
-247.2329361491501
 20
-721.7731154066335
 30
0.0
  0
SPLINE
  5
104
330
1F
100
AcDbEntity
  8
0
  6
Continuous
 62
     7
370
    25
100
AcDbSpline
210
0.0
220
0.0
230
1.0
 70
     8
 71
     3
 72
    23
 73
    19
 74
     0
 42
0.00000001
 43
0.00000001
 40
0.0
 40
0.0
 40
0.0
 40
0.0
 40
0.074080000117498
 40
0.143614907369525
 40
0.209327998307293
 40
0.2720748500174537
 40
0.3319645284520258
 40
0.3913018643038324
 40
0.4504679419891887
 40
0.5110930809981895
 40
0.571361920896483
 40
0.6304334196695619
 40
0.6880712060921785
 40
0.7466887215881474
 40
0.8059527216821951
 40
0.8679492004340066
 40
0.9321930692696546
 40
1.0
 40
1.0
 40
1.0
 40
1.0
 10
-243.170016686063
 20
-720.0952630576402
 30
0.0
 10
-243.202220231862
 20
-720.0945144765825
 30
0.0
 10
-243.2646515120937
 20
-720.0930632427937
 30
0.0
 10
-243.354914378814
 20
-720.0802718985836
 30
0.0
 10
-243.4386063681006
 20
-720.0595674825221
 30
0.0
 10
-243.5151497027306
 20
-720.0300890918916
 30
0.0
 10
-243.5853804937273
 20
-719.9931461983647
 30
0.0
 10
-243.6474250517757
 20
-719.9462691163307
 30
0.0
 10
-243.7039505285125
 20
-719.8923930768235
 30
0.0
 10
-243.7509468722726
 20
-719.8294385463716
 30
0.0
 10
-243.7900739780356
 20
-719.761607180926
 30
0.0
 10
-243.8216316448982
 20
-719.691271296297
 30
0.0
 10
-243.8429094079293
 20
-719.6178399610246
 30
0.0
 10
-243.854181067118
 20
-719.5422628001353
 30
0.0
 10
-243.8580991307514
 20
-719.4640037139795
 30
0.0
 10
-243.8507311466986
 20
-719.3835335852626
 30
0.0
 10
-243.8349071702364
 20
-719.300530984729
 30
0.0
 10
-243.817419348419
 20
-719.2458331426603
 30
0.0
 10
-243.808439504855
 20
-719.2177462791166
 30
0.0
  0
LINE
  5
105
330
1F
100
AcDbEntity
  8
0
  6
Continuous
 62
     7
370
    25
100
AcDbLine
 10
-243.8084395049
 20
-719.2177462791
 30
0.0
 11
-243.6171643371
 21
-718.6665717825
 31
0.0
  0
SPLINE
  5
106
330
1F
100
AcDbEntity
  8
0
  6
Continuous
 62
     7
370
    25
100
AcDbSpline
210
0.0
220
0.0
230
1.0
 70
     8
 71
     3
 72
    23
 73
    19
 74
     0
 42
0.00000001
 43
0.00000001
 40
0.0
 40
0.0
 40
0.0
 40
0.0
 40
0.0570271814183431
 40
0.1140567381279207
 40
0.1724360853017889
 40
0.232096125603135
 40
0.293012162564229
 40
0.3559579761153161
 40
0.4215737404030007
 40
0.4897768319772852
 40
0.5582158627988455
 40
0.6247195168938473
 40
0.6889688534412617
 40
0.7522773092909022
 40
0.8148453905885695
 40
0.8766094259408881
 40
0.9380061095687372
 40
1.0
 40
1.0
 40
1.0
 40
1.0
 10
-243.6171643370698
 20
-718.6665717824724
 30
0.0
 10
-243.6065307401203
 20
-718.6378131035119
 30
0.0
 10
-243.5852631033115
 20
-718.5802945477369
 30
0.0
 10
-243.5430933114048
 20
-718.4976024282564
 30
0.0
 10
-243.4945426427524
 20
-718.4169825977214
 30
0.0
 10
-243.4383714088765
 20
-718.3387707894026
 30
0.0
 10
-243.3737322174231
 20
-718.2642193554683
 30
0.0
 10
-243.3033815298854
 20
-718.1905447141825
 30
0.0
 10
-243.2241520981289
 20
-718.1203931598208
 30
0.0
 10
-243.1386432564408
 20
-718.0532688549122
 30
0.0
 10
-243.0491457072048
 20
-717.9906746215574
 30
0.0
 10
-242.9570309207857
 20
-717.9359436392535
 30
0.0
 10
-242.8630613084978
 20
-717.8905498984146
 30
0.0
 10
-242.7682071727033
 20
-717.8523876209554
 30
0.0
 10
-242.6716129281532
 20
-717.8230530389525
 30
0.0
 10
-242.5739771777704
 20
-717.8020546988438
 30
0.0
 10
-242.4751853759124
 20
-717.7889137250149
 30
0.0
 10
-242.408871177447
 20
-717.787332609473
 30
0.0
 10
-242.3755535988147
 20
-717.7865382254254
 30
0.0
  0
LINE
  5
107
330
1F
100
AcDbEntity
  8
0
  6
Continuous
 62
     7
370
    25
100
AcDbLine
 10
-242.3755535988
 20
-717.7865382254
 30
0.0
 11
-241.679244874
 21
-717.7865382254
 31
0.0
  0
SPLINE
  5
108
330
1F
100
AcDbEntity
  8
0
  6
Continuous
 62
     7
370
    25
100
AcDbSpline
210
0.0
220
0.0
230
1.0
 70
     8
 71
     3
 72
    11
 73
     7
 74
     0
 42
0.00000001
 43
0.00000001
 40
0.0
 40
0.0
 40
0.0
 40
0.0
 40
0.2891495514206771
 40
0.539848071786297
 40
0.7746622119008306
 40
1.0
 40
1.0
 40
1.0
 40
1.0
 10
-241.6792448739825
 20
-717.7865382254254
 30
0.0
 10
-241.6657458431141
 20
-717.7870775530258
 30
0.0
 10
-241.6405428789405
 20
-717.7880844885847
 30
0.0
 10
-241.605521174132
 20
-717.7982213929516
 30
0.0
 10
-241.5767686981963
 20
-717.8159348306418
 30
0.0
 10
-241.5633384738863
 20
-717.8328063787409
 30
0.0
 10
-241.556761652506
 20
-717.8410684267676
 30
0.0
  0
SPLINE
  5
109
330
1F
100
AcDbEntity
  8
0
  6
Continuous
 62
     7
370
    25
100
AcDbSpline
210
0.0
220
0.0
230
1.0
 70
     8
 71
     3
 72
    11
 73
     7
 74
     0
 42
0.00000001
 43
0.00000001
 40
0.0
 40
0.0
 40
0.0
 40
0.0
 40
0.2421325671821755
 40
0.4767211834522496
 40
0.7283378404491935
 40
1.0
 40
1.0
 40
1.0
 40
1.0
 10
-241.556761652506
 20
-717.8410684267676
 30
0.0
 10
-241.5523010361664
 20
-717.8512565487341
 30
0.0
 10
-241.5435187797146
 20
-717.8713153686509
 30
0.0
 10
-241.5397953100771
 20
-717.9047798100627
 30
0.0
 10
-241.5422128230693
 20
-717.9395371202795
 30
0.0
 10
-241.5490285904456
 20
-717.9625239761187
 30
0.0
 10
-241.5525670216335
 20
-717.9744576885126
 30
0.0
  0
SPLINE
  5
10A
330
1F
100
AcDbEntity
  8
0
  6
Continuous
 62
     7
370
    25
100
AcDbSpline
210
0.0
220
0.0
230
1.0
 70
     8
 71
     3
 72
    15
 73
    11
 74
     0
 42
0.00000001
 43
0.00000001
 40
0.0
 40
0.0
 40
0.0
 40
0.0
 40
0.0803218292002237
 40
0.1778859033251667
 40
0.2982847072634921
 40
0.4377188795395525
 40
0.5830304281227521
 40
0.7191913064126121
 40
0.857280423076682
 40
1.0
 40
1.0
 40
1.0
 40
1.0
 10
-241.5525670216336
 20
-717.9744576885128
 30
0.0
 10
-241.5563122845058
 20
-717.9826528732025
 30
0.0
 10
-241.5646067852146
 20
-718.0008024577672
 30
0.0
 10
-241.5827029591473
 20
-718.0291250871763
 30
0.0
 10
-241.6093921904469
 20
-718.059085016076
 30
0.0
 10
-241.6393961930815
 20
-718.0932077509422
 30
0.0
 10
-241.6758346157428
 20
-718.1236931581818
 30
0.0
 10
-241.7174150853052
 20
-718.1462047629902
 30
0.0
 10
-241.7625103654831
 20
-718.1603022616998
 30
0.0
 10
-241.7940748632548
 20
-718.1616779600008
 30
0.0
 10
-241.810117357204
 20
-718.1623771515999
 30
0.0
  0
LINE
  5
10B
330
1F
100
AcDbEntity
  8
0
  6
Continuous
 62
     7
370
    25
100
AcDbLine
 10
-241.8101173572
 20
-718.1623771516
 30
0.0
 11
-242.5114596391
 21
-718.1623771516
 31
0.0
  0
SPLINE
  5
10C
330
1F
100
AcDbEntity
  8
0
  6
Continuous
 62
     7
370
    25
100
AcDbSpline
210
0.0
220
0.0
230
1.0
 70
     8
 71
     3
 72
    15
 73
    11
 74
     0
 42
0.00000001
 43
0.00000001
 40
0.0
 40
0.0
 40
0.0
 40
0.0
 40
0.1171503837765414
 40
0.2349340582369219
 40
0.360014386454695
 40
0.4920992379409596
 40
0.6250028913386361
 40
0.7516872397951511
 40
0.8756866944279231
 40
1.0
 40
1.0
 40
1.0
 40
1.0
 10
-242.5114596390832
 20
-718.1623771516
 30
0.0
 10
-242.5463061759682
 20
-718.1642143966906
 30
0.0
 10
-242.616187622891
 20
-718.1678988186372
 30
0.0
 10
-242.7201143085211
 20
-718.1964486211987
 30
0.0
 10
-242.8217133770907
 20
-718.243124258775
 30
0.0
 10
-242.9190180681095
 20
-718.3066831194989
 30
0.0
 10
-243.0089064531132
 20
-718.3812151508644
 30
0.0
 10
-243.0843688529509
 20
-718.4671404367824
 30
0.0
 10
-243.1456726463908
 20
-718.5609952320259
 30
0.0
 10
-243.1730761430952
 20
-718.6296728119985
 30
0.0
 10
-243.186795209553
 20
-718.6640550039488
 30
0.0
  0
LINE
  5
10D
330
1F
100
AcDbEntity
  8
0
  6
Continuous
 62
     7
370
    25
100
AcDbLine
 10
-243.1867952096
 20
-718.6640550039
 30
0.0
 11
-243.3797482297
 21
-719.2202630576
 31
0.0
  0
SPLINE
  5
10E
330
1F
100
AcDbEntity
  8
0
  6
Continuous
 62
     7
370
    25
100
AcDbSpline
210
0.0
220
0.0
230
1.0
 70
     8
 71
     3
 72
    15
 73
    11
 74
     0
 42
0.00000001
 43
0.00000001
 40
0.0
 40
0.0
 40
0.0
 40
0.0
 40
0.1432413678153293
 40
0.2717648337571578
 40
0.3905719328978563
 40
0.5101106519951534
 40
0.6275974711227784
 40
0.7421962716813696
 40
0.8639985733310488
 40
1.0
 40
1.0
 40
1.0
 40
1.0
 10
-243.3797482296872
 20
-719.2202630576401
 30
0.0
 10
-243.3895881204741
 20
-719.2532532426641
 30
0.0
 10
-243.4082568634824
 20
-719.3158439054414
 30
0.0
 10
-243.4125739139037
 20
-719.4102547699574
 30
0.0
 10
-243.3970146516301
 20
-719.4976929914843
 30
0.0
 10
-243.358642606118
 20
-719.5749970173844
 30
0.0
 10
-243.3032153312514
 20
-719.639769497275
 30
0.0
 10
-243.2313069778932
 20
-719.6865599788239
 30
0.0
 10
-243.1454981721816
 20
-719.7150432794266
 30
0.0
 10
-243.0835625845681
 20
-719.717911195132
 30
0.0
 10
-243.0508891692845
 20
-719.7194241314656
 30
0.0
  0
LINE
  5
10F
330
1F
100
AcDbEntity
  8
0
  6
Continuous
 62
     7
370
    25
100
AcDbLine
 10
-243.0508891693
 20
-719.7194241315
 30
0.0
 11
-242.3495468874
 21
-719.7194241315
 31
0.0
  0
SPLINE
  5
110
330
1F
100
AcDbEntity
  8
0
  6
Continuous
 62
     7
370
    25
100
AcDbSpline
210
0.0
220
0.0
230
1.0
 70
     8
 71
     3
 72
    15
 73
    11
 74
     0
 42
0.00000001
 43
0.00000001
 40
0.0
 40
0.0
 40
0.0
 40
0.0
 40
0.1536043446475343
 40
0.2811895136468991
 40
0.3898234095020311
 40
0.4899768279721792
 40
0.59091935876533
 40
0.7042196972751597
 40
0.8408150292775233
 40
1.0
 40
1.0
 40
1.0
 40
1.0
 10
-242.3495468874053
 20
-719.7194241314656
 30
0.0
 10
-242.3347021636939
 20
-719.7201336606819
 30
0.0
 10
-242.3075272771359
 20
-719.7214325313336
 30
0.0
 10
-242.2701839692564
 20
-719.7289341378752
 30
0.0
 10
-242.2410921284865
 20
-719.7445364914151
 30
0.0
 10
-242.2196019335344
 20
-719.7662453909924
 30
0.0
 10
-242.2074599440412
 20
-719.7949174468092
 30
0.0
 10
-242.2050421776998
 20
-719.8291119950788
 30
0.0
 10
-242.2092930452928
 20
-719.8687055522381
 30
0.0
 10
-242.2181190164084
 20
-719.89600636821
 30
0.0
 10
-242.2228690350563
 20
-719.9106992992508
 30
0.0
  0
LINE
  5
111
330
1F
100
AcDbEntity
  8
0
  6
Continuous
 62
     7
370
    25
100
AcDbLine
 10
-242.2228690351
 20
-719.9106992993
 30
0.0
 11
-242.7966945384
 21
-721.5684174201
 31
0.0
  0
SPLINE
  5
112
330
1F
100
AcDbEntity
  8
0
  6
Continuous
 62
     7
370
    25
100
AcDbSpline
210
0.0
220
0.0
230
1.0
 70
     8
 71
     3
 72
    15
 73
    11
 74
     0
 42
0.00000001
 43
0.00000001
 40
0.0
 40
0.0
 40
0.0
 40
0.0
 40
0.1389033175258957
 40
0.270105980181133
 40
0.3906977424153977
 40
0.5072875929412154
 40
0.6235251314360983
 40
0.7430922232630243
 40
0.8665173060101163
 40
0.9999999999999999
 40
0.9999999999999999
 40
0.9999999999999999
 40
0.9999999999999999
 10
-242.7966945384121
 20
-721.5684174200563
 30
0.0
 10
-242.802457918587
 20
-721.583414161972
 30
0.0
 10
-242.8136651631584
 20
-721.6125762420921
 30
0.0
 10
-242.8362547612813
 20
-721.6518748522216
 30
0.0
 10
-242.8625851415277
 20
-721.6855229165211
 30
0.0
 10
-242.8932495111136
 20
-721.712845219368
 30
0.0
 10
-242.9282305462496
 20
-721.7340604984847
 30
0.0
 10
-242.9670619200374
 20
-721.749335676547
 30
0.0
 10
-243.0100077037313
 20
-721.7575118715382
 30
0.0
 10
-243.0396713369014
 20
-721.7589469551768
 30
0.0
 10
-243.055083800157
 20
-721.7596925878414
 30
0.0
  0
LINE
  5
113
330
1F
100
AcDbEntity
  8
0
  6
Continuous
 62
     7
370
    25
100
AcDbLine
 10
-243.0550838002
 20
-721.7596925878
 30
0.0
 11
-244.4426676928
 21
-721.7596925878
 31
0.0
  0
SPLINE
  5
114
330
1F
100
AcDbEntity
  8
0
  6
Continuous
 62
     7
370
    25
100
AcDbSpline
210
0.0
220
0.0
230
1.0
 70
     8
 71
     3
 72
    15
 73
    11
 74
     0
 42
0.00000001
 43
0.00000001
 40
0.0
 40
0.0
 40
0.0
 40
0.0
 40
0.1638308982556187
 40
0.3109184554375647
 40
0.4423669558857308
 40
0.5735822880786599
 40
0.6988579733532497
 40
0.806482020776925
 40
0.9039530938474888
 40
1.0
 40
1.0
 40
1.0
 40
1.0
 10
-244.4426676927744
 20
-721.7596925878414
 30
0.0
 10
-244.4592679343336
 20
-721.7589972804675
 30
0.0
 10
-244.4907718906717
 20
-721.7576777253836
 30
0.0
 10
-244.5340367172358
 20
-721.7449945645216
 30
0.0
 10
-244.5708583845585
 20
-721.7246365990571
 30
0.0
 10
-244.5966747303072
 20
-721.6944807634032
 30
0.0
 10
-244.6161386864608
 20
-721.6629134503255
 30
0.0
 10
-244.625975168535
 20
-721.6309190265229
 30
0.0
 10
-244.6310815833796
 20
-721.6002795886535
 30
0.0
 10
-244.6257052191351
 20
-721.581228544942
 30
0.0
 10
-244.6230368202912
 20
-721.5717731247541
 30
0.0
  0
SPLINE
  5
115
330
1F
100
AcDbEntity
  8
0
  6
Continuous
 62
     7
370
    25
100
AcDbSpline
210
0.0
220
0.0
230
1.0
 70
     8
 71
     3
 72
    15
 73
    11
 74
     0
 42
0.00000001
 43
0.00000001
 40
0.0
 40
0.0
 40
0.0
 40
0.0
 40
0.0771138993438277
 40
0.1709645546160078
 40
0.2806078642056342
 40
0.4089003248049967
 40
0.5456708326301533
 40
0.6883531956695945
 40
0.8381650688025756
 40
1.0
 40
1.0
 40
1.0
 40
1.0
 10
-244.6230368202912
 20
-721.5717731247541
 30
0.0
 10
-244.6191689050974
 20
-721.5626430613655
 30
0.0
 10
-244.6105935846425
 20
-721.5424013509328
 30
0.0
 10
-244.5886113579355
 20
-721.5135713830041
 30
0.0
 10
-244.559793307223
 20
-721.482328159375
 30
0.0
 10
-244.5238593196895
 20
-721.4503102990701
 30
0.0
 10
-244.4806277209949
 20
-721.4205383623386
 30
0.0
 10
-244.4297587729075
 20
-721.3986492170435
 30
0.0
 10
-244.3725263844881
 20
-721.3860527499761
 30
0.0
 10
-244.3325529807185
 20
-721.3846053048213
 30
0.0
 10
-244.311795209553
 20
-721.383853661667
 30
0.0
  0
LINE
  5
116
330
1F
100
AcDbEntity
  8
0
  6
Continuous
 62
     7
370
    25
100
AcDbLine
 10
-244.3117952096
 20
-721.3838536617
 30
0.0
 11
-243.1624663505
 21
-721.3838536617
 31
0.0
  0
LINE
  5
117
330
1F
100
AcDbEntity
  8
0
  6
Continuous
 62
     7
370
    25
100
AcDbLine
 10
-243.1624663505
 20
-721.3838536617
 30
0.0
 11
-242.7161576257
 21
-720.0952630576
 31
0.0
  0
LINE
  5
118
330
1F
100
AcDbEntity
  8
0
  6
Continuous
 62
     7
370
    25
100
AcDbLine
 10
-242.7161576257
 20
-720.0952630576
 30
0.0
 11
-243.1700166861
 21
-720.0952630576
 31
0.0
  0
SPLINE
  5
119
330
1F
100
AcDbEntity
  8
0
  6
Continuous
 62
     7
370
    25
100
AcDbSpline
210
0.0
220
0.0
230
1.0
 70
     8
 71
     3
 72
    11
 73
     7
 74
     0
 42
0.00000001
 43
0.00000001
 40
0.0
 40
0.0
 40
0.0
 40
0.0
 40
0.2347484327706292
 40
0.4662778316326928
 40
0.7220104112852129
 40
1.0
 40
1.0
 40
1.0
 40
1.0
 10
-243.9091106457945
 20
-717.8595248026068
 30
0.0
 10
-243.9046222922989
 20
-717.8685775296688
 30
0.0
 10
-243.8957071327351
 20
-717.8865588464984
 30
0.0
 10
-243.8924107678589
 20
-717.9176178782333
 30
0.0
 10
-243.8934368012109
 20
-717.9505026909536
 30
0.0
 10
-243.9004330745635
 20
-717.9723215220256
 30
0.0
 10
-243.9040770887475
 20
-717.9836858764321
 30
0.0
  0
SPLINE
  5
11A
330
1F
100
AcDbEntity
  8
0
  6
Continuous
 62
     7
370
    25
100
AcDbSpline
210
0.0
220
0.0
230
1.0
 70
     8
 71
     3
 72
    15
 73
    11
 74
     0
 42
0.00000001
 43
0.00000001
 40
0.0
 40
0.0
 40
0.0
 40
0.0
 40
0.0824548138577812
 40
0.1804591857764898
 40
0.2984929084545764
 40
0.4360950623066207
 40
0.5800540835634191
 40
0.7174655205478124
 40
0.8560409787430991
 40
1.0
 40
1.0
 40
1.0
 40
1.0
 10
-243.9040770887475
 20
-717.9836858764321
 30
0.0
 10
-243.9077901216943
 20
-717.9919017745955
 30
0.0
 10
-243.9159164016649
 20
-718.009882947842
 30
0.0
 10
-243.9341580659583
 20
-718.0370990624504
 30
0.0
 10
-243.9597906862887
 20
-718.0660627229581
 30
0.0
 10
-243.9904770033734
 20
-718.097050590145
 30
0.0
 10
-244.0257518924384
 20
-718.1267023804274
 30
0.0
 10
-244.0673580881966
 20
-718.1467225809363
 30
0.0
 10
-244.111572560199
 20
-718.160184434691
 30
0.0
 10
-244.1425088410003
 20
-718.1616370198523
 30
0.0
 10
-244.15827171962
 20
-718.1623771515999
 30
0.0
  0
SPLINE
  5
11B
330
1F
100
AcDbEntity
  8
0
  6
Continuous
 62
     7
370
    25
100
AcDbSpline
210
0.0
220
0.0
230
1.0
 70
     8
 71
     3
 72
    15
 73
    11
 74
     0
 42
0.00000001
 43
0.00000001
 40
0.0
 40
0.0
 40
0.0
 40
0.0
 40
0.1661575911151976
 40
0.3102195896050653
 40
0.4437173901803809
 40
0.5745936603578571
 40
0.6995456317374965
 40
0.8077748071538624
 40
0.9047194381128668
 40
1.0
 40
1.0
 40
1.0
 40
1.0
 10
-244.15827171962
 20
-718.1623771515999
 30
0.0
 10
-244.1751740970159
 20
-718.1617615361454
 30
0.0
 10
-244.2067311781215
 20
-718.160612169617
 30
0.0
 10
-244.2500157858352
 20
-718.1472625965793
 30
0.0
 10
-244.2871672578442
 20
-718.1276213813122
 30
0.0
 10
-244.3132403692653
 20
-718.097169743621
 30
0.0
 10
-244.3321675583668
 20
-718.0654082112012
 30
0.0
 10
-244.3438700257005
 20
-718.033819316121
 30
0.0
 10
-244.3469709304457
 20
-718.0029859150575
 30
0.0
 10
-244.3425232755446
 20
-717.9839120573733
 30
0.0
 10
-244.3403186994857
 20
-717.9744576885126
 30
0.0
  0
SPLINE
  5
11C
330
1F
100
AcDbEntity
  8
0
  6
Continuous
 62
     7
370
    25
100
AcDbSpline
210
0.0
220
0.0
230
1.0
 70
     8
 71
     3
 72
    15
 73
    11
 74
     0
 42
0.00000001
 43
0.00000001
 40
0.0
 40
0.0
 40
0.0
 40
0.0
 40
0.077947810562805
 40
0.171657565121604
 40
0.2811362640274387
 40
0.4076139428512468
 40
0.5441791131421977
 40
0.6866472630078461
 40
0.8362342192263732
 40
0.9999999999999999
 40
0.9999999999999999
 40
0.9999999999999999
 40
0.9999999999999999
 10
-244.3403186994857
 20
-717.9744576885126
 30
0.0
 10
-244.3361203897464
 20
-717.9653526466811
 30
0.0
 10
-244.3268748237417
 20
-717.9453014188166
 30
0.0
 10
-244.3051569416066
 20
-717.9161910774038
 30
0.0
 10
-244.2762394691239
 20
-717.8853033198728
 30
0.0
 10
-244.2411328773994
 20
-717.8526982326218
 30
0.0
 10
-244.1978621604538
 20
-717.8232743688008
 30
0.0
 10
-244.1470542884438
 20
-717.8013192763473
 30
0.0
 10
-244.0895298172987
 20
-717.7886802642616
 30
0.0
 10
-244.04927586142
 20
-717.7872734571329
 30
0.0
 10
-244.028238162573
 20
-717.7865382254254
 30
0.0
  0
SPLINE
  5
11D
330
1F
100
AcDbEntity
  8
0
  6
Continuous
 62
     7
370
    25
100
AcDbSpline
210
0.0
220
0.0
230
1.0
 70
     8
 71
     3
 72
    11
 73
     7
 74
     0
 42
0.00000001
 43
0.00000001
 40
0.0
 40
0.0
 40
0.0
 40
0.0
 40
0.2819226043608694
 40
0.5257683519922673
 40
0.7564125636142776
 40
1.0
 40
1.0
 40
1.0
 40
1.0
 10
-244.028238162573
 20
-717.7865382254254
 30
0.0
 10
-244.014065970305
 20
-717.786996876569
 30
0.0
 10
-243.9876357016509
 20
-717.7878522327986
 30
0.0
 10
-243.9524644594297
 20
-717.8031867018973
 30
0.0
 10
-243.9241422389898
 20
-717.8265700311025
 30
0.0
 10
-243.9142115233427
 20
-717.8483418061081
 30
0.0
 10
-243.9091106457945
 20
-717.8595248026066
 30
0.0
  0
ENDSEC
  0
SECTION
  2
OBJECTS
  0
DICTIONARY
  5
C
330
0
100
AcDbDictionary
281
     1
  3
ACAD_GROUP
350
D
  3
ACAD_LAYOUT
350
1A
  3
ACAD_MLINESTYLE
350
17
  3
ACAD_PLOTSETTINGS
350
19
  3
ACAD_PLOTSTYLENAME
350
E
  3
ACAD_SCALELIST
350
47
  3
DWGPROPS
350
11E
  0
DICTIONARY
  5
D
102
{ACAD_REACTORS
330
C
102
}
330
C
100
AcDbDictionary
281
     1
  0
DICTIONARY
  5
1A
102
{ACAD_REACTORS
330
C
102
}
330
C
100
AcDbDictionary
281
     1
  3
Layout1
350
1E
  3
Layout2
350
26
  3
Model
350
22
  0
DICTIONARY
  5
17
102
{ACAD_REACTORS
330
C
102
}
330
C
100
AcDbDictionary
281
     1
  3
Standard
350
18
  0
DICTIONARY
  5
19
102
{ACAD_REACTORS
330
C
102
}
330
C
100
AcDbDictionary
281
     1
  0
ACDBDICTIONARYWDFLT
  5
E
102
{ACAD_REACTORS
330
C
102
}
330
C
100
AcDbDictionary
281
     1
  3
Normal
350
F
100
AcDbDictionaryWithDefault
340
F
  0
DICTIONARY
  5
47
102
{ACAD_REACTORS
330
C
102
}
330
C
100
AcDbDictionary
281
     1
  3
A0
350
48
  3
A1
350
49
  3
A2
350
4A
  3
A3
350
4B
  3
A4
350
4C
  3
A5
350
4D
  3
A6
350
4E
  3
A7
350
4F
  3
A8
350
50
  3
A9
350
51
  3
B0
350
52
  3
B1
350
53
  3
B2
350
54
  3
B3
350
55
  3
B4
350
56
  3
B5
350
57
  3
B6
350
58
  0
XRECORD
  5
11E
102
{ACAD_REACTORS
330
C
102
}
330
C
100
AcDbXrecord
280
     1
  1
DWGPROPS COOKIE
  2

  3

  4

  6

  7

  8
Vorob
  9

300
=
301
=
302
=
303
=
304
=
305
=
306
=
307
=
308
=
309
=
 40
0.0
 41
2461004.47978316
 42
2461004.479796366
  1

 90
        0
  0
LAYOUT
  5
1E
102
{ACAD_REACTORS
330
1A
102
}
330
1A
100
AcDbPlotSettings
  1

  2
none_device
  4

  6

 40
0.0
 41
0.0
 42
0.0
 43
0.0
 44
0.0
 45
0.0
 46
0.0
 47
0.0
 48
0.0
 49
0.0
140
0.0
141
0.0
142
1.0
143
1.0
 70
   688
 72
     1
 73
     0
 74
     5
  7

 75
    16
147
1.0
148
0.0
149
0.0
100
AcDbLayout
  1
Layout1
 70
     1
 71
     1
 10
0.0
 20
0.0
 11
420.0
 21
297.0
 12
0.0
 22
0.0
 32
0.0
 14
1.0000000000E+20
 24
1.0000000000E+20
 34
1.0000000000E+20
 15
-1.0000000000E+20
 25
-1.0000000000E+20
 35
-1.0000000000E+20
146
0.0
 13
0.0
 23
0.0
 33
0.0
 16
1.0
 26
0.0
 36
0.0
 17
0.0
 27
1.0
 37
0.0
 76
     0
330
1B
  0
LAYOUT
  5
26
102
{ACAD_REACTORS
330
1A
102
}
330
1A
100
AcDbPlotSettings
  1

  2
none_device
  4

  6

 40
0.0
 41
0.0
 42
0.0
 43
0.0
 44
0.0
 45
0.0
 46
0.0
 47
0.0
 48
0.0
 49
0.0
140
0.0
141
0.0
142
1.0
143
1.0
 70
   688
 72
     1
 73
     0
 74
     5
  7

 75
    16
147
1.0
148
0.0
149
0.0
100
AcDbLayout
  1
Layout2
 70
     1
 71
     2
 10
0.0
 20
0.0
 11
0.0
 21
0.0
 12
0.0
 22
0.0
 32
0.0
 14
0.0
 24
0.0
 34
0.0
 15
0.0
 25
0.0
 35
0.0
146
0.0
 13
0.0
 23
0.0
 33
0.0
 16
1.0
 26
0.0
 36
0.0
 17
0.0
 27
1.0
 37
0.0
 76
     0
330
23
  0
LAYOUT
  5
22
102
{ACAD_REACTORS
330
1A
102
}
330
1A
100
AcDbPlotSettings
  1

  2
none_device
  4
ANSI_A_(11.00_x_8.50_Inches)
  6

 40
6.35
 41
19.05
 42
6.35000508
 43
19.05000254
 44
279.4
 45
215.9
 46
133.34999746
 47
88.89999873
 48
0.0
 49
0.0
140
0.0
141
0.0
142
0.0050410953
143
1.0
 70
  1696
 72
     0
 73
     0
 74
     0
  7

 75
     0
147
0.0179189148
148
-1300.4909072572
149
0.0
100
AcDbLayout
  1
Model
 70
     1
 71
     0
 10
0.0
 20
0.0
 11
420.0
 21
297.0
 12
0.0
 22
0.0
 32
0.0
 14
-324.5798957497
 24
-834.6400405304
 34
0.0
 15
324.5798957497
 25
834.6400405304
 35
0.0
146
0.0
 13
0.0
 23
0.0
 33
0.0
 16
1.0
 26
0.0
 36
0.0
 17
0.0
 27
1.0
 37
0.0
 76
     0
330
1F
331
29
  0
MLINESTYLE
  5
18
102
{ACAD_REACTORS
330
17
102
}
330
17
100
AcDbMlineStyle
  2
Standard
 70
     0
  3

 62
   256
 51
90.0
 52
90.0
 71
     2
 49
0.5
 62
   256
  6
BYLAYER
 49
-0.5
 62
   256
  6
BYLAYER
  0
ACDBPLACEHOLDER
  5
F
102
{ACAD_REACTORS
330
E
102
}
330
E
  0
SCALE
  5
48
102
{ACAD_REACTORS
330
47
102
}
330
47
100
AcDbScale
 70
     0
300
1:1
140
1.0
141
1.0
290
     1
  0
SCALE
  5
49
102
{ACAD_REACTORS
330
47
102
}
330
47
100
AcDbScale
 70
     0
300
1:2
140
1.0
141
2.0
290
     0
  0
SCALE
  5
4A
102
{ACAD_REACTORS
330
47
102
}
330
47
100
AcDbScale
 70
     0
300
1:4
140
1.0
141
4.0
290
     0
  0
SCALE
  5
4B
102
{ACAD_REACTORS
330
47
102
}
330
47
100
AcDbScale
 70
     0
300
1:5
140
1.0
141
5.0
290
     0
  0
SCALE
  5
4C
102
{ACAD_REACTORS
330
47
102
}
330
47
100
AcDbScale
 70
     0
300
1:8
140
1.0
141
8.0
290
     0
  0
SCALE
  5
4D
102
{ACAD_REACTORS
330
47
102
}
330
47
100
AcDbScale
 70
     0
300
1:10
140
1.0
141
10.0
290
     0
  0
SCALE
  5
4E
102
{ACAD_REACTORS
330
47
102
}
330
47
100
AcDbScale
 70
     0
300
1:16
140
1.0
141
16.0
290
     0
  0
SCALE
  5
4F
102
{ACAD_REACTORS
330
47
102
}
330
47
100
AcDbScale
 70
     0
300
1:20
140
1.0
141
20.0
290
     0
  0
SCALE
  5
50
102
{ACAD_REACTORS
330
47
102
}
330
47
100
AcDbScale
 70
     0
300
1:30
140
1.0
141
30.0
290
     0
  0
SCALE
  5
51
102
{ACAD_REACTORS
330
47
102
}
330
47
100
AcDbScale
 70
     0
300
1:40
140
1.0
141
40.0
290
     0
  0
SCALE
  5
52
102
{ACAD_REACTORS
330
47
102
}
330
47
100
AcDbScale
 70
     0
300
1:50
140
1.0
141
50.0
290
     0
  0
SCALE
  5
53
102
{ACAD_REACTORS
330
47
102
}
330
47
100
AcDbScale
 70
     0
300
1:100
140
1.0
141
100.0
290
     0
  0
SCALE
  5
54
102
{ACAD_REACTORS
330
47
102
}
330
47
100
AcDbScale
 70
     0
300
2:1
140
2.0
141
1.0
290
     0
  0
SCALE
  5
55
102
{ACAD_REACTORS
330
47
102
}
330
47
100
AcDbScale
 70
     0
300
4:1
140
4.0
141
1.0
290
     0
  0
SCALE
  5
56
102
{ACAD_REACTORS
330
47
102
}
330
47
100
AcDbScale
 70
     0
300
8:1
140
8.0
141
1.0
290
     0
  0
SCALE
  5
57
102
{ACAD_REACTORS
330
47
102
}
330
47
100
AcDbScale
 70
     0
300
10:1
140
10.0
141
1.0
290
     0
  0
SCALE
  5
58
102
{ACAD_REACTORS
330
47
102
}
330
47
100
AcDbScale
 70
     0
300
100:1
140
100.0
141
1.0
290
     0
  0
ENDSEC
  0
EOF
